<mxfile host="app.diagrams.net" agent="Mozilla/5.0 (Windows NT 10.0; Win64; x64) AppleWebKit/537.36 (KHTML, like Gecko) Chrome/133.0.0.0 Safari/537.36 Edg/133.0.0.0" version="26.0.13">
  <diagram name="Page-1" id="tzhc3whBNL0cGUrzBZbR">
    <mxGraphModel dx="3455" dy="2513" grid="1" gridSize="10" guides="1" tooltips="1" connect="1" arrows="1" fold="1" page="1" pageScale="1" pageWidth="850" pageHeight="1100" math="0" shadow="0">
      <root>
        <mxCell id="0" />
        <mxCell id="1" parent="0" />
        <mxCell id="10CSAyg4ySIZtmBwXXm2-1" value="" style="rounded=0;whiteSpace=wrap;html=1;" parent="1" vertex="1">
          <mxGeometry x="105" y="150" width="640" height="240" as="geometry" />
        </mxCell>
        <mxCell id="10CSAyg4ySIZtmBwXXm2-2" value="" style="rounded=0;whiteSpace=wrap;html=1;strokeWidth=0;fillColor=light-dark(#3333FF,#99CAFC);fontColor=#FFFFFF;" parent="1" vertex="1">
          <mxGeometry x="80" y="170" width="560" height="30" as="geometry" />
        </mxCell>
        <mxCell id="10CSAyg4ySIZtmBwXXm2-3" value="Car Parking System" style="text;html=1;align=center;verticalAlign=middle;whiteSpace=wrap;rounded=0;fontColor=light-dark(#ffffff, #ededed);fontStyle=1" parent="1" vertex="1">
          <mxGeometry x="10" y="170" width="280" height="30" as="geometry" />
        </mxCell>
        <mxCell id="10CSAyg4ySIZtmBwXXm2-4" value="Home&amp;nbsp; &amp;nbsp;AddCar" style="text;html=1;align=center;verticalAlign=middle;whiteSpace=wrap;rounded=0;fontColor=#FFFFFF;" parent="1" vertex="1">
          <mxGeometry x="380" y="170" width="130" height="30" as="geometry" />
        </mxCell>
        <mxCell id="YdW8SJRkiYvQTzwNUpTn-3" value="Actor" style="shape=umlActor;verticalLabelPosition=bottom;verticalAlign=top;html=1;outlineConnect=0;" vertex="1" parent="1">
          <mxGeometry x="380" y="240" width="30" height="60" as="geometry" />
        </mxCell>
        <mxCell id="YdW8SJRkiYvQTzwNUpTn-4" value="Actor" style="shape=umlActor;verticalLabelPosition=bottom;verticalAlign=top;html=1;outlineConnect=0;" vertex="1" parent="1">
          <mxGeometry x="340" y="230" width="30" height="60" as="geometry" />
        </mxCell>
        <mxCell id="YdW8SJRkiYvQTzwNUpTn-5" value="" style="triangle;whiteSpace=wrap;html=1;direction=north;" vertex="1" parent="1">
          <mxGeometry x="240" y="230" width="30" height="20" as="geometry" />
        </mxCell>
        <mxCell id="YdW8SJRkiYvQTzwNUpTn-6" value="" style="whiteSpace=wrap;html=1;aspect=fixed;" vertex="1" parent="1">
          <mxGeometry x="245" y="250" width="20" height="20" as="geometry" />
        </mxCell>
        <mxCell id="YdW8SJRkiYvQTzwNUpTn-12" value="" style="curved=1;endArrow=classic;html=1;rounded=0;entryX=0;entryY=1;entryDx=0;entryDy=0;" edge="1" parent="1">
          <mxGeometry width="50" height="50" relative="1" as="geometry">
            <mxPoint x="260" y="269.9957142857142" as="sourcePoint" />
            <mxPoint x="240" y="270" as="targetPoint" />
            <Array as="points">
              <mxPoint x="510" y="305.71" />
              <mxPoint x="810" y="355.71" />
              <mxPoint x="460" y="385.71" />
              <mxPoint x="850" y="375.71" />
              <mxPoint x="410" y="305.71" />
            </Array>
          </mxGeometry>
        </mxCell>
        <mxCell id="YdW8SJRkiYvQTzwNUpTn-19" value="" style="sketch=0;outlineConnect=0;fontColor=#232F3E;gradientColor=none;fillColor=#E7157B;strokeColor=none;dashed=0;verticalLabelPosition=bottom;verticalAlign=top;align=center;html=1;fontSize=12;fontStyle=0;aspect=fixed;pointerEvents=1;shape=mxgraph.aws4.eventbridge_saas_partner_event_bus_resource;" vertex="1" parent="1">
          <mxGeometry x="400" y="240" width="20" height="20" as="geometry" />
        </mxCell>
        <mxCell id="YdW8SJRkiYvQTzwNUpTn-20" value="" style="sketch=0;outlineConnect=0;fontColor=#232F3E;gradientColor=none;fillColor=#E7157B;strokeColor=none;dashed=0;verticalLabelPosition=bottom;verticalAlign=top;align=center;html=1;fontSize=12;fontStyle=0;aspect=fixed;pointerEvents=1;shape=mxgraph.aws4.eventbridge_saas_partner_event_bus_resource;" vertex="1" parent="1">
          <mxGeometry x="360" y="230" width="20" height="20" as="geometry" />
        </mxCell>
        <mxCell id="YdW8SJRkiYvQTzwNUpTn-22" value="" style="verticalLabelPosition=bottom;verticalAlign=top;html=1;shape=mxgraph.basic.polygon;polyCoords=[[0.25,0],[0.75,0],[1,0.25],[1,0.75],[0.75,1],[0.25,1],[0,0.75],[0,0.25]];polyline=0;fontColor=#00FF80;fillColor=#00FF80;" vertex="1" parent="1">
          <mxGeometry x="440" y="150" width="350" height="130" as="geometry" />
        </mxCell>
        <mxCell id="YdW8SJRkiYvQTzwNUpTn-23" value="" style="rounded=0;whiteSpace=wrap;html=1;direction=south;" vertex="1" parent="1">
          <mxGeometry x="160" y="280" width="60" height="120" as="geometry" />
        </mxCell>
        <mxCell id="YdW8SJRkiYvQTzwNUpTn-24" value="" style="rounded=0;whiteSpace=wrap;html=1;direction=south;" vertex="1" parent="1">
          <mxGeometry x="220" y="310" width="40" height="90" as="geometry" />
        </mxCell>
        <mxCell id="YdW8SJRkiYvQTzwNUpTn-25" value="" style="swimlane;startSize=10;" vertex="1" collapsed="1" parent="1">
          <mxGeometry x="170" y="290" width="10" height="10" as="geometry">
            <mxRectangle x="170" y="290" width="10" height="10" as="alternateBounds" />
          </mxGeometry>
        </mxCell>
        <mxCell id="YdW8SJRkiYvQTzwNUpTn-34" style="edgeStyle=orthogonalEdgeStyle;rounded=0;orthogonalLoop=1;jettySize=auto;html=1;exitX=0.75;exitY=0;exitDx=0;exitDy=0;" edge="1" parent="1" source="YdW8SJRkiYvQTzwNUpTn-32" target="YdW8SJRkiYvQTzwNUpTn-23">
          <mxGeometry relative="1" as="geometry" />
        </mxCell>
        <mxCell id="YdW8SJRkiYvQTzwNUpTn-32" value="" style="swimlane;startSize=0;" vertex="1" collapsed="1" parent="1">
          <mxGeometry x="180" y="300" width="10" height="10" as="geometry">
            <mxRectangle x="170" y="290" width="10" height="10" as="alternateBounds" />
          </mxGeometry>
        </mxCell>
        <mxCell id="YdW8SJRkiYvQTzwNUpTn-35" value="" style="whiteSpace=wrap;html=1;aspect=fixed;" vertex="1" parent="1">
          <mxGeometry x="160" y="350" width="10" height="10" as="geometry" />
        </mxCell>
        <mxCell id="YdW8SJRkiYvQTzwNUpTn-36" value="" style="whiteSpace=wrap;html=1;aspect=fixed;" vertex="1" parent="1">
          <mxGeometry x="160" y="335" width="10" height="10" as="geometry" />
        </mxCell>
        <mxCell id="YdW8SJRkiYvQTzwNUpTn-37" value="" style="whiteSpace=wrap;html=1;aspect=fixed;" vertex="1" parent="1">
          <mxGeometry x="180" y="320" width="10" height="10" as="geometry" />
        </mxCell>
        <mxCell id="YdW8SJRkiYvQTzwNUpTn-38" value="" style="whiteSpace=wrap;html=1;aspect=fixed;" vertex="1" parent="1">
          <mxGeometry x="180" y="335" width="10" height="10" as="geometry" />
        </mxCell>
        <mxCell id="YdW8SJRkiYvQTzwNUpTn-39" value="" style="whiteSpace=wrap;html=1;aspect=fixed;" vertex="1" parent="1">
          <mxGeometry x="200" y="335" width="10" height="10" as="geometry" />
        </mxCell>
        <mxCell id="YdW8SJRkiYvQTzwNUpTn-41" style="edgeStyle=orthogonalEdgeStyle;rounded=0;orthogonalLoop=1;jettySize=auto;html=1;exitX=0.5;exitY=1;exitDx=0;exitDy=0;entryX=0.416;entryY=0.917;entryDx=0;entryDy=0;entryPerimeter=0;" edge="1" parent="1" source="YdW8SJRkiYvQTzwNUpTn-36" target="YdW8SJRkiYvQTzwNUpTn-23">
          <mxGeometry relative="1" as="geometry" />
        </mxCell>
        <mxCell id="YdW8SJRkiYvQTzwNUpTn-43" value="" style="whiteSpace=wrap;html=1;aspect=fixed;" vertex="1" parent="1">
          <mxGeometry x="160" y="370" width="10" height="10" as="geometry" />
        </mxCell>
        <mxCell id="YdW8SJRkiYvQTzwNUpTn-44" value="" style="whiteSpace=wrap;html=1;aspect=fixed;" vertex="1" parent="1">
          <mxGeometry x="200" y="350" width="10" height="10" as="geometry" />
        </mxCell>
        <mxCell id="YdW8SJRkiYvQTzwNUpTn-45" value="" style="whiteSpace=wrap;html=1;aspect=fixed;" vertex="1" parent="1">
          <mxGeometry x="180" y="350" width="10" height="10" as="geometry" />
        </mxCell>
        <mxCell id="YdW8SJRkiYvQTzwNUpTn-46" value="" style="whiteSpace=wrap;html=1;aspect=fixed;" vertex="1" parent="1">
          <mxGeometry x="180" y="370" width="10" height="10" as="geometry" />
        </mxCell>
        <mxCell id="YdW8SJRkiYvQTzwNUpTn-47" value="" style="whiteSpace=wrap;html=1;aspect=fixed;" vertex="1" parent="1">
          <mxGeometry x="200" y="370" width="10" height="10" as="geometry" />
        </mxCell>
        <mxCell id="YdW8SJRkiYvQTzwNUpTn-48" value="" style="whiteSpace=wrap;html=1;aspect=fixed;" vertex="1" parent="1">
          <mxGeometry x="160" y="390" width="10" height="10" as="geometry" />
        </mxCell>
        <mxCell id="YdW8SJRkiYvQTzwNUpTn-49" value="" style="whiteSpace=wrap;html=1;aspect=fixed;" vertex="1" parent="1">
          <mxGeometry x="180" y="390" width="10" height="10" as="geometry" />
        </mxCell>
        <mxCell id="YdW8SJRkiYvQTzwNUpTn-51" value="" style="whiteSpace=wrap;html=1;aspect=fixed;" vertex="1" parent="1">
          <mxGeometry x="200" y="390" width="10" height="10" as="geometry" />
        </mxCell>
        <mxCell id="YdW8SJRkiYvQTzwNUpTn-52" value="" style="whiteSpace=wrap;html=1;aspect=fixed;" vertex="1" parent="1">
          <mxGeometry x="220" y="325" width="10" height="10" as="geometry" />
        </mxCell>
        <mxCell id="YdW8SJRkiYvQTzwNUpTn-53" value="" style="whiteSpace=wrap;html=1;aspect=fixed;" vertex="1" parent="1">
          <mxGeometry x="240" y="310" width="10" height="10" as="geometry" />
        </mxCell>
        <mxCell id="YdW8SJRkiYvQTzwNUpTn-54" value="" style="whiteSpace=wrap;html=1;aspect=fixed;" vertex="1" parent="1">
          <mxGeometry x="230" y="345" width="10" height="10" as="geometry" />
        </mxCell>
        <mxCell id="YdW8SJRkiYvQTzwNUpTn-55" value="" style="whiteSpace=wrap;html=1;aspect=fixed;" vertex="1" parent="1">
          <mxGeometry x="245" y="330" width="10" height="10" as="geometry" />
        </mxCell>
        <mxCell id="YdW8SJRkiYvQTzwNUpTn-56" value="" style="whiteSpace=wrap;html=1;aspect=fixed;" vertex="1" parent="1">
          <mxGeometry x="220" y="360" width="10" height="10" as="geometry" />
        </mxCell>
        <mxCell id="YdW8SJRkiYvQTzwNUpTn-57" value="" style="whiteSpace=wrap;html=1;aspect=fixed;" vertex="1" parent="1">
          <mxGeometry x="240" y="360" width="10" height="10" as="geometry" />
        </mxCell>
        <mxCell id="YdW8SJRkiYvQTzwNUpTn-58" value="" style="whiteSpace=wrap;html=1;aspect=fixed;" vertex="1" parent="1">
          <mxGeometry x="220" y="380" width="10" height="10" as="geometry" />
        </mxCell>
        <mxCell id="YdW8SJRkiYvQTzwNUpTn-59" value="" style="whiteSpace=wrap;html=1;aspect=fixed;" vertex="1" parent="1">
          <mxGeometry x="245" y="380" width="10" height="10" as="geometry" />
        </mxCell>
        <mxCell id="YdW8SJRkiYvQTzwNUpTn-65" value="" style="verticalLabelPosition=bottom;verticalAlign=top;html=1;shape=mxgraph.basic.smiley" vertex="1" parent="1">
          <mxGeometry x="350" y="230" width="10" height="15" as="geometry" />
        </mxCell>
        <mxCell id="YdW8SJRkiYvQTzwNUpTn-66" value="" style="verticalLabelPosition=bottom;verticalAlign=top;html=1;shape=mxgraph.basic.smiley" vertex="1" parent="1">
          <mxGeometry x="390" y="240" width="10" height="15" as="geometry" />
        </mxCell>
        <mxCell id="YdW8SJRkiYvQTzwNUpTn-67" value="" style="rounded=0;whiteSpace=wrap;html=1;" vertex="1" parent="1">
          <mxGeometry x="-810" y="-950" width="718" height="400" as="geometry" />
        </mxCell>
        <mxCell id="YdW8SJRkiYvQTzwNUpTn-68" value="&lt;h3&gt;&lt;font style=&quot;color: rgb(255, 255, 255);&quot;&gt;&amp;nbsp; &amp;nbsp; &amp;nbsp; &lt;font style=&quot;&quot;&gt;&lt;span style=&quot;font-size: 20px;&quot;&gt;Car Parking System&amp;nbsp; &amp;nbsp; &amp;nbsp; &amp;nbsp; &amp;nbsp; &amp;nbsp; &amp;nbsp; &amp;nbsp; &amp;nbsp; &amp;nbsp; &amp;nbsp; &amp;nbsp; &amp;nbsp; &amp;nbsp; &amp;nbsp; &amp;nbsp; &amp;nbsp;&lt;/span&gt;&lt;span style=&quot;font-weight: normal;&quot;&gt;&lt;font style=&quot;font-size: 18px;&quot;&gt;Home&amp;nbsp; &amp;nbsp;Add Car&lt;/font&gt;&lt;/span&gt;&lt;/font&gt;&lt;/font&gt;&lt;/h3&gt;" style="rounded=0;whiteSpace=wrap;html=1;align=left;fillColor=#3333FF;strokeColor=#3333FF;" vertex="1" parent="1">
          <mxGeometry x="-780" y="-930" width="660" height="50" as="geometry" />
        </mxCell>
        <mxCell id="YdW8SJRkiYvQTzwNUpTn-69" value="" style="shape=table;startSize=0;container=1;collapsible=0;childLayout=tableLayout;strokeColor=#CCCCCC;" vertex="1" parent="1">
          <mxGeometry x="-761" y="-816" width="621" height="96" as="geometry" />
        </mxCell>
        <mxCell id="YdW8SJRkiYvQTzwNUpTn-70" value="" style="shape=tableRow;horizontal=0;startSize=0;swimlaneHead=0;swimlaneBody=0;strokeColor=inherit;top=0;left=0;bottom=0;right=0;collapsible=0;dropTarget=0;fillColor=none;points=[[0,0.5],[1,0.5]];portConstraint=eastwest;" vertex="1" parent="YdW8SJRkiYvQTzwNUpTn-69">
          <mxGeometry width="621" height="40" as="geometry" />
        </mxCell>
        <mxCell id="YdW8SJRkiYvQTzwNUpTn-71" value="#" style="shape=partialRectangle;html=1;whiteSpace=wrap;connectable=0;strokeColor=inherit;overflow=hidden;fillColor=#000000;top=0;left=0;bottom=0;right=0;pointerEvents=1;fontStyle=1;fontColor=#FFFFFF;fontSize=12;" vertex="1" parent="YdW8SJRkiYvQTzwNUpTn-70">
          <mxGeometry width="30" height="40" as="geometry">
            <mxRectangle width="30" height="40" as="alternateBounds" />
          </mxGeometry>
        </mxCell>
        <mxCell id="YdW8SJRkiYvQTzwNUpTn-72" value="Car Brand" style="shape=partialRectangle;html=1;whiteSpace=wrap;connectable=0;strokeColor=inherit;overflow=hidden;fillColor=#000000;top=0;left=0;bottom=0;right=0;pointerEvents=1;fontStyle=1;fontColor=#FFFFFF;fontSize=12;" vertex="1" parent="YdW8SJRkiYvQTzwNUpTn-70">
          <mxGeometry x="30" width="70" height="40" as="geometry">
            <mxRectangle width="70" height="40" as="alternateBounds" />
          </mxGeometry>
        </mxCell>
        <mxCell id="YdW8SJRkiYvQTzwNUpTn-73" value="Car Number" style="shape=partialRectangle;html=1;whiteSpace=wrap;connectable=0;strokeColor=inherit;overflow=hidden;fillColor=#000000;top=0;left=0;bottom=0;right=0;pointerEvents=1;fontStyle=1;fontColor=#FFFFFF;fontSize=12;" vertex="1" parent="YdW8SJRkiYvQTzwNUpTn-70">
          <mxGeometry x="100" width="90" height="40" as="geometry">
            <mxRectangle width="90" height="40" as="alternateBounds" />
          </mxGeometry>
        </mxCell>
        <mxCell id="YdW8SJRkiYvQTzwNUpTn-74" value="Car Type" style="shape=partialRectangle;html=1;whiteSpace=wrap;connectable=0;strokeColor=inherit;overflow=hidden;fillColor=#000000;top=0;left=0;bottom=0;right=0;pointerEvents=1;fontStyle=1;fontColor=#FFFFFF;fontSize=12;" vertex="1" parent="YdW8SJRkiYvQTzwNUpTn-70">
          <mxGeometry x="190" width="60" height="40" as="geometry">
            <mxRectangle width="60" height="40" as="alternateBounds" />
          </mxGeometry>
        </mxCell>
        <mxCell id="YdW8SJRkiYvQTzwNUpTn-75" value="Incoming Time" style="shape=partialRectangle;html=1;whiteSpace=wrap;connectable=0;strokeColor=inherit;overflow=hidden;fillColor=#000000;top=0;left=0;bottom=0;right=0;pointerEvents=1;fontStyle=1;fontColor=#FFFFFF;fontSize=12;" vertex="1" parent="YdW8SJRkiYvQTzwNUpTn-70">
          <mxGeometry x="250" width="88" height="40" as="geometry">
            <mxRectangle width="88" height="40" as="alternateBounds" />
          </mxGeometry>
        </mxCell>
        <mxCell id="YdW8SJRkiYvQTzwNUpTn-76" value="Outgoing Time" style="shape=partialRectangle;html=1;whiteSpace=wrap;connectable=0;strokeColor=inherit;overflow=hidden;fillColor=#000000;top=0;left=0;bottom=0;right=0;pointerEvents=1;fontStyle=1;fontColor=#FFFFFF;fontSize=12;" vertex="1" parent="YdW8SJRkiYvQTzwNUpTn-70">
          <mxGeometry x="338" width="93" height="40" as="geometry">
            <mxRectangle width="93" height="40" as="alternateBounds" />
          </mxGeometry>
        </mxCell>
        <mxCell id="YdW8SJRkiYvQTzwNUpTn-77" value="Parking Slot" style="shape=partialRectangle;html=1;whiteSpace=wrap;connectable=0;strokeColor=inherit;overflow=hidden;fillColor=#000000;top=0;left=0;bottom=0;right=0;pointerEvents=1;fontStyle=1;fontColor=#FFFFFF;fontSize=12;" vertex="1" parent="YdW8SJRkiYvQTzwNUpTn-70">
          <mxGeometry x="431" width="80" height="40" as="geometry">
            <mxRectangle width="80" height="40" as="alternateBounds" />
          </mxGeometry>
        </mxCell>
        <mxCell id="YdW8SJRkiYvQTzwNUpTn-78" value="Action" style="shape=partialRectangle;html=1;whiteSpace=wrap;connectable=0;strokeColor=inherit;overflow=hidden;fillColor=#000000;top=0;left=0;bottom=0;right=0;pointerEvents=1;fontStyle=1;fontColor=#FFFFFF;fontSize=12;" vertex="1" parent="YdW8SJRkiYvQTzwNUpTn-70">
          <mxGeometry x="511" width="110" height="40" as="geometry">
            <mxRectangle width="110" height="40" as="alternateBounds" />
          </mxGeometry>
        </mxCell>
        <mxCell id="YdW8SJRkiYvQTzwNUpTn-79" value="" style="shape=tableRow;horizontal=0;startSize=0;swimlaneHead=0;swimlaneBody=0;strokeColor=inherit;top=0;left=0;bottom=0;right=0;collapsible=0;dropTarget=0;fillColor=none;points=[[0,0.5],[1,0.5]];portConstraint=eastwest;" vertex="1" parent="YdW8SJRkiYvQTzwNUpTn-69">
          <mxGeometry y="40" width="621" height="26" as="geometry" />
        </mxCell>
        <mxCell id="YdW8SJRkiYvQTzwNUpTn-80" value="1" style="shape=partialRectangle;html=1;whiteSpace=wrap;connectable=0;strokeColor=inherit;overflow=hidden;fillColor=none;top=0;left=0;bottom=0;right=0;pointerEvents=1;" vertex="1" parent="YdW8SJRkiYvQTzwNUpTn-79">
          <mxGeometry width="30" height="26" as="geometry">
            <mxRectangle width="30" height="26" as="alternateBounds" />
          </mxGeometry>
        </mxCell>
        <mxCell id="YdW8SJRkiYvQTzwNUpTn-81" value="Benz" style="shape=partialRectangle;html=1;whiteSpace=wrap;connectable=0;strokeColor=inherit;overflow=hidden;fillColor=none;top=0;left=0;bottom=0;right=0;pointerEvents=1;" vertex="1" parent="YdW8SJRkiYvQTzwNUpTn-79">
          <mxGeometry x="30" width="70" height="26" as="geometry">
            <mxRectangle width="70" height="26" as="alternateBounds" />
          </mxGeometry>
        </mxCell>
        <mxCell id="YdW8SJRkiYvQTzwNUpTn-82" value="KA-04 AR-1551" style="shape=partialRectangle;html=1;whiteSpace=wrap;connectable=0;strokeColor=inherit;overflow=hidden;fillColor=none;top=0;left=0;bottom=0;right=0;pointerEvents=1;" vertex="1" parent="YdW8SJRkiYvQTzwNUpTn-79">
          <mxGeometry x="100" width="90" height="26" as="geometry">
            <mxRectangle width="90" height="26" as="alternateBounds" />
          </mxGeometry>
        </mxCell>
        <mxCell id="YdW8SJRkiYvQTzwNUpTn-83" value="SUV" style="shape=partialRectangle;html=1;whiteSpace=wrap;connectable=0;strokeColor=inherit;overflow=hidden;fillColor=none;top=0;left=0;bottom=0;right=0;pointerEvents=1;" vertex="1" parent="YdW8SJRkiYvQTzwNUpTn-79">
          <mxGeometry x="190" width="60" height="26" as="geometry">
            <mxRectangle width="60" height="26" as="alternateBounds" />
          </mxGeometry>
        </mxCell>
        <mxCell id="YdW8SJRkiYvQTzwNUpTn-84" value="10:20" style="shape=partialRectangle;html=1;whiteSpace=wrap;connectable=0;strokeColor=inherit;overflow=hidden;fillColor=none;top=0;left=0;bottom=0;right=0;pointerEvents=1;" vertex="1" parent="YdW8SJRkiYvQTzwNUpTn-79">
          <mxGeometry x="250" width="88" height="26" as="geometry">
            <mxRectangle width="88" height="26" as="alternateBounds" />
          </mxGeometry>
        </mxCell>
        <mxCell id="YdW8SJRkiYvQTzwNUpTn-85" value="12:24" style="shape=partialRectangle;html=1;whiteSpace=wrap;connectable=0;strokeColor=inherit;overflow=hidden;fillColor=none;top=0;left=0;bottom=0;right=0;pointerEvents=1;" vertex="1" parent="YdW8SJRkiYvQTzwNUpTn-79">
          <mxGeometry x="338" width="93" height="26" as="geometry">
            <mxRectangle width="93" height="26" as="alternateBounds" />
          </mxGeometry>
        </mxCell>
        <mxCell id="YdW8SJRkiYvQTzwNUpTn-86" value="A-1" style="shape=partialRectangle;html=1;whiteSpace=wrap;connectable=0;strokeColor=inherit;overflow=hidden;fillColor=none;top=0;left=0;bottom=0;right=0;pointerEvents=1;" vertex="1" parent="YdW8SJRkiYvQTzwNUpTn-79">
          <mxGeometry x="431" width="80" height="26" as="geometry">
            <mxRectangle width="80" height="26" as="alternateBounds" />
          </mxGeometry>
        </mxCell>
        <mxCell id="YdW8SJRkiYvQTzwNUpTn-87" value="" style="shape=partialRectangle;html=1;whiteSpace=wrap;connectable=0;strokeColor=inherit;overflow=hidden;fillColor=none;top=0;left=0;bottom=0;right=0;pointerEvents=1;" vertex="1" parent="YdW8SJRkiYvQTzwNUpTn-79">
          <mxGeometry x="511" width="110" height="26" as="geometry">
            <mxRectangle width="110" height="26" as="alternateBounds" />
          </mxGeometry>
        </mxCell>
        <mxCell id="YdW8SJRkiYvQTzwNUpTn-88" value="" style="shape=tableRow;horizontal=0;startSize=0;swimlaneHead=0;swimlaneBody=0;strokeColor=inherit;top=0;left=0;bottom=0;right=0;collapsible=0;dropTarget=0;fillColor=none;points=[[0,0.5],[1,0.5]];portConstraint=eastwest;" vertex="1" parent="YdW8SJRkiYvQTzwNUpTn-69">
          <mxGeometry y="66" width="621" height="30" as="geometry" />
        </mxCell>
        <mxCell id="YdW8SJRkiYvQTzwNUpTn-89" value="2" style="shape=partialRectangle;html=1;whiteSpace=wrap;connectable=0;strokeColor=inherit;overflow=hidden;fillColor=none;top=0;left=0;bottom=0;right=0;pointerEvents=1;" vertex="1" parent="YdW8SJRkiYvQTzwNUpTn-88">
          <mxGeometry width="30" height="30" as="geometry">
            <mxRectangle width="30" height="30" as="alternateBounds" />
          </mxGeometry>
        </mxCell>
        <mxCell id="YdW8SJRkiYvQTzwNUpTn-90" value="Audi" style="shape=partialRectangle;html=1;whiteSpace=wrap;connectable=0;strokeColor=inherit;overflow=hidden;fillColor=none;top=0;left=0;bottom=0;right=0;pointerEvents=1;" vertex="1" parent="YdW8SJRkiYvQTzwNUpTn-88">
          <mxGeometry x="30" width="70" height="30" as="geometry">
            <mxRectangle width="70" height="30" as="alternateBounds" />
          </mxGeometry>
        </mxCell>
        <mxCell id="YdW8SJRkiYvQTzwNUpTn-91" value="KA-01 AJ-2001" style="shape=partialRectangle;html=1;whiteSpace=wrap;connectable=0;strokeColor=inherit;overflow=hidden;fillColor=none;top=0;left=0;bottom=0;right=0;pointerEvents=1;" vertex="1" parent="YdW8SJRkiYvQTzwNUpTn-88">
          <mxGeometry x="100" width="90" height="30" as="geometry">
            <mxRectangle width="90" height="30" as="alternateBounds" />
          </mxGeometry>
        </mxCell>
        <mxCell id="YdW8SJRkiYvQTzwNUpTn-92" value="XUV" style="shape=partialRectangle;html=1;whiteSpace=wrap;connectable=0;strokeColor=inherit;overflow=hidden;fillColor=none;top=0;left=0;bottom=0;right=0;pointerEvents=1;" vertex="1" parent="YdW8SJRkiYvQTzwNUpTn-88">
          <mxGeometry x="190" width="60" height="30" as="geometry">
            <mxRectangle width="60" height="30" as="alternateBounds" />
          </mxGeometry>
        </mxCell>
        <mxCell id="YdW8SJRkiYvQTzwNUpTn-93" value="07:30" style="shape=partialRectangle;html=1;whiteSpace=wrap;connectable=0;strokeColor=inherit;overflow=hidden;fillColor=none;top=0;left=0;bottom=0;right=0;pointerEvents=1;" vertex="1" parent="YdW8SJRkiYvQTzwNUpTn-88">
          <mxGeometry x="250" width="88" height="30" as="geometry">
            <mxRectangle width="88" height="30" as="alternateBounds" />
          </mxGeometry>
        </mxCell>
        <mxCell id="YdW8SJRkiYvQTzwNUpTn-94" value="14:30" style="shape=partialRectangle;html=1;whiteSpace=wrap;connectable=0;strokeColor=inherit;overflow=hidden;fillColor=none;top=0;left=0;bottom=0;right=0;pointerEvents=1;" vertex="1" parent="YdW8SJRkiYvQTzwNUpTn-88">
          <mxGeometry x="338" width="93" height="30" as="geometry">
            <mxRectangle width="93" height="30" as="alternateBounds" />
          </mxGeometry>
        </mxCell>
        <mxCell id="YdW8SJRkiYvQTzwNUpTn-95" value="B-1" style="shape=partialRectangle;html=1;whiteSpace=wrap;connectable=0;strokeColor=inherit;overflow=hidden;fillColor=none;top=0;left=0;bottom=0;right=0;pointerEvents=1;" vertex="1" parent="YdW8SJRkiYvQTzwNUpTn-88">
          <mxGeometry x="431" width="80" height="30" as="geometry">
            <mxRectangle width="80" height="30" as="alternateBounds" />
          </mxGeometry>
        </mxCell>
        <mxCell id="YdW8SJRkiYvQTzwNUpTn-96" value="" style="shape=partialRectangle;html=1;whiteSpace=wrap;connectable=0;strokeColor=inherit;overflow=hidden;fillColor=none;top=0;left=0;bottom=0;right=0;pointerEvents=1;" vertex="1" parent="YdW8SJRkiYvQTzwNUpTn-88">
          <mxGeometry x="511" width="110" height="30" as="geometry">
            <mxRectangle width="110" height="30" as="alternateBounds" />
          </mxGeometry>
        </mxCell>
        <mxCell id="YdW8SJRkiYvQTzwNUpTn-97" value="Car Parking List" style="text;html=1;align=center;verticalAlign=middle;whiteSpace=wrap;rounded=0;fontStyle=1;fontSize=16;" vertex="1" parent="1">
          <mxGeometry x="-774" y="-850" width="170" height="30" as="geometry" />
        </mxCell>
        <mxCell id="YdW8SJRkiYvQTzwNUpTn-98" value="Add New Car" style="rounded=1;whiteSpace=wrap;html=1;fillColor=#55AB51;fontColor=#FFFFFF;" vertex="1" parent="1">
          <mxGeometry x="-240" y="-860" width="80" height="30" as="geometry" />
        </mxCell>
        <mxCell id="YdW8SJRkiYvQTzwNUpTn-99" value="&lt;font style=&quot;font-size: 8px;&quot;&gt;View&lt;/font&gt;" style="rounded=1;whiteSpace=wrap;html=1;fillColor=#28FFF7;fontColor=#4D4D4D;" vertex="1" parent="1">
          <mxGeometry x="-245" y="-773" width="30" height="20" as="geometry" />
        </mxCell>
        <mxCell id="YdW8SJRkiYvQTzwNUpTn-100" value="&lt;font style=&quot;font-size: 8px;&quot;&gt;Edit&lt;/font&gt;" style="rounded=1;whiteSpace=wrap;html=1;fillColor=#FFFF66;fontColor=#000000;" vertex="1" parent="1">
          <mxGeometry x="-211" y="-773" width="30" height="20" as="geometry" />
        </mxCell>
        <mxCell id="YdW8SJRkiYvQTzwNUpTn-101" value="&lt;font style=&quot;font-size: 8px;&quot;&gt;Delete&lt;/font&gt;" style="rounded=1;whiteSpace=wrap;html=1;fillColor=#CC0000;fontColor=#FFFFFF;" vertex="1" parent="1">
          <mxGeometry x="-177" y="-773" width="30" height="20" as="geometry" />
        </mxCell>
        <mxCell id="YdW8SJRkiYvQTzwNUpTn-102" value="&lt;font style=&quot;font-size: 8px;&quot;&gt;View&lt;/font&gt;" style="rounded=1;whiteSpace=wrap;html=1;fillColor=#28FFF7;fontColor=#4D4D4D;" vertex="1" parent="1">
          <mxGeometry x="-245" y="-745" width="30" height="20" as="geometry" />
        </mxCell>
        <mxCell id="YdW8SJRkiYvQTzwNUpTn-103" value="&lt;font style=&quot;font-size: 8px;&quot;&gt;Edit&lt;/font&gt;" style="rounded=1;whiteSpace=wrap;html=1;fillColor=#FFFF66;fontColor=#000000;" vertex="1" parent="1">
          <mxGeometry x="-211" y="-745" width="30" height="20" as="geometry" />
        </mxCell>
        <mxCell id="YdW8SJRkiYvQTzwNUpTn-104" value="&lt;font style=&quot;font-size: 8px;&quot;&gt;Delete&lt;/font&gt;" style="rounded=1;whiteSpace=wrap;html=1;fillColor=#CC0000;fontColor=#FFFFFF;" vertex="1" parent="1">
          <mxGeometry x="-177" y="-745" width="30" height="20" as="geometry" />
        </mxCell>
        <mxCell id="YdW8SJRkiYvQTzwNUpTn-105" value="" style="rounded=0;whiteSpace=wrap;html=1;" vertex="1" parent="1">
          <mxGeometry x="83" y="-951" width="718" height="400" as="geometry" />
        </mxCell>
        <mxCell id="YdW8SJRkiYvQTzwNUpTn-106" value="&lt;h3&gt;&lt;font style=&quot;color: rgb(255, 255, 255);&quot;&gt;&amp;nbsp; &amp;nbsp; &amp;nbsp; &lt;font style=&quot;&quot;&gt;&lt;span style=&quot;font-size: 20px;&quot;&gt;Car Parking System&amp;nbsp; &amp;nbsp; &amp;nbsp; &amp;nbsp; &amp;nbsp; &amp;nbsp; &amp;nbsp; &amp;nbsp; &amp;nbsp; &amp;nbsp; &amp;nbsp; &amp;nbsp; &amp;nbsp; &amp;nbsp; &amp;nbsp; &amp;nbsp; &amp;nbsp;&lt;/span&gt;&lt;span style=&quot;font-weight: normal;&quot;&gt;&lt;font style=&quot;font-size: 18px;&quot;&gt;Home&amp;nbsp; &amp;nbsp;Add Car&lt;/font&gt;&lt;/span&gt;&lt;/font&gt;&lt;/font&gt;&lt;/h3&gt;" style="rounded=0;whiteSpace=wrap;html=1;align=left;fillColor=#3333FF;strokeColor=#3333FF;" vertex="1" parent="1">
          <mxGeometry x="110" y="-930" width="660" height="50" as="geometry" />
        </mxCell>
        <mxCell id="YdW8SJRkiYvQTzwNUpTn-107" value="Add New Car" style="text;html=1;align=center;verticalAlign=middle;whiteSpace=wrap;rounded=0;fontStyle=1;fontSize=16;" vertex="1" parent="1">
          <mxGeometry x="102" y="-869" width="170" height="30" as="geometry" />
        </mxCell>
        <mxCell id="YdW8SJRkiYvQTzwNUpTn-108" value="Car Brand" style="text;html=1;align=center;verticalAlign=middle;whiteSpace=wrap;rounded=0;fontStyle=0;fontSize=12;" vertex="1" parent="1">
          <mxGeometry x="80" y="-844" width="170" height="30" as="geometry" />
        </mxCell>
        <mxCell id="YdW8SJRkiYvQTzwNUpTn-109" value="" style="rounded=1;whiteSpace=wrap;html=1;" vertex="1" parent="1">
          <mxGeometry x="130" y="-821" width="620" height="19" as="geometry" />
        </mxCell>
        <mxCell id="YdW8SJRkiYvQTzwNUpTn-110" value="Car Number" style="text;html=1;align=center;verticalAlign=middle;whiteSpace=wrap;rounded=0;fontStyle=0;fontSize=12;" vertex="1" parent="1">
          <mxGeometry x="82" y="-802" width="170" height="30" as="geometry" />
        </mxCell>
        <mxCell id="YdW8SJRkiYvQTzwNUpTn-111" value="Car Type" style="text;html=1;align=center;verticalAlign=middle;whiteSpace=wrap;rounded=0;fontStyle=0;fontSize=12;" vertex="1" parent="1">
          <mxGeometry x="75" y="-758" width="170" height="30" as="geometry" />
        </mxCell>
        <mxCell id="YdW8SJRkiYvQTzwNUpTn-112" value="" style="rounded=1;whiteSpace=wrap;html=1;" vertex="1" parent="1">
          <mxGeometry x="129" y="-778" width="620" height="21" as="geometry" />
        </mxCell>
        <mxCell id="YdW8SJRkiYvQTzwNUpTn-113" value="" style="rounded=1;whiteSpace=wrap;html=1;" vertex="1" parent="1">
          <mxGeometry x="127" y="-734" width="620" height="21" as="geometry" />
        </mxCell>
        <mxCell id="YdW8SJRkiYvQTzwNUpTn-114" value="Incoming Time" style="text;html=1;align=center;verticalAlign=middle;whiteSpace=wrap;rounded=0;fontStyle=0;fontSize=12;" vertex="1" parent="1">
          <mxGeometry x="89" y="-713" width="170" height="30" as="geometry" />
        </mxCell>
        <mxCell id="YdW8SJRkiYvQTzwNUpTn-115" value="" style="rounded=1;whiteSpace=wrap;html=1;" vertex="1" parent="1">
          <mxGeometry x="125" y="-690" width="620" height="21" as="geometry" />
        </mxCell>
        <mxCell id="YdW8SJRkiYvQTzwNUpTn-116" value="Outgoing Time" style="text;html=1;align=center;verticalAlign=middle;whiteSpace=wrap;rounded=0;fontStyle=0;fontSize=12;" vertex="1" parent="1">
          <mxGeometry x="87" y="-670" width="170" height="30" as="geometry" />
        </mxCell>
        <mxCell id="YdW8SJRkiYvQTzwNUpTn-117" value="" style="rounded=1;whiteSpace=wrap;html=1;" vertex="1" parent="1">
          <mxGeometry x="124" y="-646" width="620" height="21" as="geometry" />
        </mxCell>
        <mxCell id="YdW8SJRkiYvQTzwNUpTn-118" value="" style="rounded=1;whiteSpace=wrap;html=1;" vertex="1" parent="1">
          <mxGeometry x="124" y="-603" width="620" height="21" as="geometry" />
        </mxCell>
        <mxCell id="YdW8SJRkiYvQTzwNUpTn-119" value="Parking Slot" style="text;html=1;align=center;verticalAlign=middle;whiteSpace=wrap;rounded=0;fontStyle=0;fontSize=12;" vertex="1" parent="1">
          <mxGeometry x="79" y="-628" width="170" height="30" as="geometry" />
        </mxCell>
        <mxCell id="YdW8SJRkiYvQTzwNUpTn-120" value="Save" style="rounded=1;whiteSpace=wrap;html=1;fillColor=#3333FF;fontColor=#FFFFFF;" vertex="1" parent="1">
          <mxGeometry x="131" y="-571" width="40" height="13" as="geometry" />
        </mxCell>
        <mxCell id="YdW8SJRkiYvQTzwNUpTn-121" value="" style="rounded=0;whiteSpace=wrap;html=1;" vertex="1" parent="1">
          <mxGeometry x="-819.5" y="20" width="718" height="400" as="geometry" />
        </mxCell>
        <mxCell id="YdW8SJRkiYvQTzwNUpTn-122" value="&lt;h3&gt;&lt;font style=&quot;color: rgb(255, 255, 255);&quot;&gt;&amp;nbsp; &amp;nbsp; &amp;nbsp; &lt;font style=&quot;&quot;&gt;&lt;span style=&quot;font-size: 20px;&quot;&gt;Car Parking System&amp;nbsp; &amp;nbsp; &amp;nbsp; &amp;nbsp; &amp;nbsp; &amp;nbsp; &amp;nbsp; &amp;nbsp; &amp;nbsp; &amp;nbsp; &amp;nbsp; &amp;nbsp; &amp;nbsp; &amp;nbsp; &amp;nbsp; &amp;nbsp; &amp;nbsp;&lt;/span&gt;&lt;span style=&quot;font-weight: normal;&quot;&gt;&lt;font style=&quot;font-size: 18px;&quot;&gt;Home&amp;nbsp; &amp;nbsp;Add Car&lt;/font&gt;&lt;/span&gt;&lt;/font&gt;&lt;/font&gt;&lt;/h3&gt;" style="rounded=0;whiteSpace=wrap;html=1;align=left;fillColor=#3333FF;strokeColor=#3333FF;" vertex="1" parent="1">
          <mxGeometry x="-792.5" y="41" width="660" height="50" as="geometry" />
        </mxCell>
        <mxCell id="YdW8SJRkiYvQTzwNUpTn-123" value="Edit Car Details" style="text;html=1;align=center;verticalAlign=middle;whiteSpace=wrap;rounded=0;fontStyle=1;fontSize=16;" vertex="1" parent="1">
          <mxGeometry x="-790.5" y="99" width="170" height="30" as="geometry" />
        </mxCell>
        <mxCell id="YdW8SJRkiYvQTzwNUpTn-124" value="Car Brand" style="text;html=1;align=center;verticalAlign=middle;whiteSpace=wrap;rounded=0;fontStyle=0;fontSize=12;" vertex="1" parent="1">
          <mxGeometry x="-822.5" y="121" width="170" height="30" as="geometry" />
        </mxCell>
        <mxCell id="YdW8SJRkiYvQTzwNUpTn-125" value="&lt;font style=&quot;font-size: 10px;&quot;&gt;&amp;nbsp; &amp;nbsp;Audi&lt;/font&gt;" style="rounded=1;whiteSpace=wrap;html=1;align=left;" vertex="1" parent="1">
          <mxGeometry x="-774.5" y="144" width="620" height="19" as="geometry" />
        </mxCell>
        <mxCell id="YdW8SJRkiYvQTzwNUpTn-126" value="Car Number" style="text;html=1;align=center;verticalAlign=middle;whiteSpace=wrap;rounded=0;fontStyle=0;fontSize=12;" vertex="1" parent="1">
          <mxGeometry x="-820.5" y="163" width="170" height="30" as="geometry" />
        </mxCell>
        <mxCell id="YdW8SJRkiYvQTzwNUpTn-127" value="Car Type" style="text;html=1;align=center;verticalAlign=middle;whiteSpace=wrap;rounded=0;fontStyle=0;fontSize=12;" vertex="1" parent="1">
          <mxGeometry x="-827.5" y="207" width="170" height="30" as="geometry" />
        </mxCell>
        <mxCell id="YdW8SJRkiYvQTzwNUpTn-128" value="&lt;span style=&quot;font-size: 10px;&quot;&gt;&amp;nbsp; &amp;nbsp;KA-04 AR-1551&lt;/span&gt;" style="rounded=1;whiteSpace=wrap;html=1;align=left;" vertex="1" parent="1">
          <mxGeometry x="-773.5" y="187" width="620" height="21" as="geometry" />
        </mxCell>
        <mxCell id="YdW8SJRkiYvQTzwNUpTn-129" value="&lt;span style=&quot;font-size: 10px;&quot;&gt;&amp;nbsp; &amp;nbsp;SUV&lt;/span&gt;" style="rounded=1;whiteSpace=wrap;html=1;align=left;" vertex="1" parent="1">
          <mxGeometry x="-775.5" y="231" width="620" height="21" as="geometry" />
        </mxCell>
        <mxCell id="YdW8SJRkiYvQTzwNUpTn-130" value="Incoming Time" style="text;html=1;align=center;verticalAlign=middle;whiteSpace=wrap;rounded=0;fontStyle=0;fontSize=12;" vertex="1" parent="1">
          <mxGeometry x="-813.5" y="252" width="170" height="30" as="geometry" />
        </mxCell>
        <mxCell id="YdW8SJRkiYvQTzwNUpTn-131" value="&lt;span style=&quot;font-size: 10px;&quot;&gt;&amp;nbsp; &amp;nbsp;10:30&lt;/span&gt;" style="rounded=1;whiteSpace=wrap;html=1;align=left;" vertex="1" parent="1">
          <mxGeometry x="-777.5" y="275" width="620" height="21" as="geometry" />
        </mxCell>
        <mxCell id="YdW8SJRkiYvQTzwNUpTn-132" value="Outgoing Time" style="text;html=1;align=center;verticalAlign=middle;whiteSpace=wrap;rounded=0;fontStyle=0;fontSize=12;" vertex="1" parent="1">
          <mxGeometry x="-815.5" y="295" width="170" height="30" as="geometry" />
        </mxCell>
        <mxCell id="YdW8SJRkiYvQTzwNUpTn-133" value="&lt;span style=&quot;font-size: 10px;&quot;&gt;&amp;nbsp; &amp;nbsp;15:30&lt;/span&gt;" style="rounded=1;whiteSpace=wrap;html=1;align=left;" vertex="1" parent="1">
          <mxGeometry x="-778.5" y="319" width="620" height="21" as="geometry" />
        </mxCell>
        <mxCell id="YdW8SJRkiYvQTzwNUpTn-134" value="&lt;span style=&quot;font-size: 10px;&quot;&gt;&amp;nbsp; &amp;nbsp;A-1&lt;/span&gt;" style="rounded=1;whiteSpace=wrap;html=1;align=left;" vertex="1" parent="1">
          <mxGeometry x="-778.5" y="362" width="620" height="21" as="geometry" />
        </mxCell>
        <mxCell id="YdW8SJRkiYvQTzwNUpTn-135" value="Parking Slot" style="text;html=1;align=center;verticalAlign=middle;whiteSpace=wrap;rounded=0;fontStyle=0;fontSize=12;" vertex="1" parent="1">
          <mxGeometry x="-823.5" y="337" width="170" height="30" as="geometry" />
        </mxCell>
        <mxCell id="YdW8SJRkiYvQTzwNUpTn-136" value="Update" style="rounded=1;whiteSpace=wrap;html=1;fillColor=#3333FF;fontColor=#FFFFFF;" vertex="1" parent="1">
          <mxGeometry x="-771.5" y="390" width="52" height="23" as="geometry" />
        </mxCell>
        <mxCell id="YdW8SJRkiYvQTzwNUpTn-137" value="" style="rounded=0;whiteSpace=wrap;html=1;" vertex="1" parent="1">
          <mxGeometry y="-40" width="787.5" height="550" as="geometry" />
        </mxCell>
        <mxCell id="YdW8SJRkiYvQTzwNUpTn-138" value="&lt;h3&gt;&lt;font style=&quot;color: rgb(255, 255, 255);&quot;&gt;&amp;nbsp; &amp;nbsp; &amp;nbsp; &lt;font style=&quot;&quot;&gt;&lt;span style=&quot;font-size: 20px;&quot;&gt;Car Parking System&amp;nbsp; &amp;nbsp; &amp;nbsp; &amp;nbsp; &amp;nbsp; &amp;nbsp; &amp;nbsp; &amp;nbsp; &amp;nbsp; &amp;nbsp; &amp;nbsp; &amp;nbsp; &amp;nbsp; &amp;nbsp; &amp;nbsp; &amp;nbsp; &amp;nbsp;&lt;/span&gt;&lt;span style=&quot;font-weight: normal;&quot;&gt;&lt;font style=&quot;font-size: 18px;&quot;&gt;Home&amp;nbsp; &amp;nbsp;Add Car&lt;/font&gt;&lt;/span&gt;&lt;/font&gt;&lt;/font&gt;&lt;/h3&gt;" style="rounded=0;whiteSpace=wrap;html=1;align=left;fillColor=#3333FF;strokeColor=#3333FF;" vertex="1" parent="1">
          <mxGeometry x="96.5" y="41" width="660" height="50" as="geometry" />
        </mxCell>
        <mxCell id="YdW8SJRkiYvQTzwNUpTn-139" value="Car Details" style="text;html=1;align=center;verticalAlign=middle;whiteSpace=wrap;rounded=0;fontStyle=1;fontSize=16;" vertex="1" parent="1">
          <mxGeometry x="80.5" y="99" width="170" height="30" as="geometry" />
        </mxCell>
        <mxCell id="YdW8SJRkiYvQTzwNUpTn-140" value="" style="rounded=0;whiteSpace=wrap;html=1;perimeterSpacing=0;glass=0;shadow=1;" vertex="1" parent="1">
          <mxGeometry x="114.5" y="133" width="608" height="247" as="geometry" />
        </mxCell>
        <mxCell id="YdW8SJRkiYvQTzwNUpTn-141" value="&lt;h5 style=&quot;box-sizing: border-box; margin-top: 0px; margin-bottom: var(--bs-card-title-spacer-y); font-weight: 500; line-height: 1.2; color: rgb(33, 37, 41); font-size: 1.25rem; font-family: system-ui, -apple-system, &amp;quot;Segoe UI&amp;quot;, Roboto, &amp;quot;Helvetica Neue&amp;quot;, &amp;quot;Noto Sans&amp;quot;, &amp;quot;Liberation Sans&amp;quot;, Arial, sans-serif, &amp;quot;Apple Color Emoji&amp;quot;, &amp;quot;Segoe UI Emoji&amp;quot;, &amp;quot;Segoe UI Symbol&amp;quot;, &amp;quot;Noto Color Emoji&amp;quot;; text-align: start; background-color: rgb(255, 255, 255);&quot; class=&quot;card-title&quot;&gt;Audi Q6&amp;nbsp;(SUV)&lt;/h5&gt;&lt;p style=&quot;box-sizing: border-box; margin-top: 0px; margin-bottom: 1rem; color: rgb(33, 37, 41); font-family: system-ui, -apple-system, &amp;quot;Segoe UI&amp;quot;, Roboto, &amp;quot;Helvetica Neue&amp;quot;, &amp;quot;Noto Sans&amp;quot;, &amp;quot;Liberation Sans&amp;quot;, Arial, sans-serif, &amp;quot;Apple Color Emoji&amp;quot;, &amp;quot;Segoe UI Emoji&amp;quot;, &amp;quot;Segoe UI Symbol&amp;quot;, &amp;quot;Noto Color Emoji&amp;quot;; font-weight: 400; text-align: start; background-color: rgb(255, 255, 255);&quot;&gt;&lt;span style=&quot;box-sizing: border-box; font-weight: bolder;&quot;&gt;Car Number:&lt;/span&gt;&amp;nbsp;AR-1551&lt;/p&gt;&lt;p style=&quot;box-sizing: border-box; margin-top: 0px; margin-bottom: 1rem; color: rgb(33, 37, 41); font-family: system-ui, -apple-system, &amp;quot;Segoe UI&amp;quot;, Roboto, &amp;quot;Helvetica Neue&amp;quot;, &amp;quot;Noto Sans&amp;quot;, &amp;quot;Liberation Sans&amp;quot;, Arial, sans-serif, &amp;quot;Apple Color Emoji&amp;quot;, &amp;quot;Segoe UI Emoji&amp;quot;, &amp;quot;Segoe UI Symbol&amp;quot;, &amp;quot;Noto Color Emoji&amp;quot;; font-weight: 400; text-align: start; background-color: rgb(255, 255, 255);&quot;&gt;&lt;span style=&quot;box-sizing: border-box; font-weight: bolder;&quot;&gt;Car Type:&lt;/span&gt;&amp;nbsp;SUV&lt;/p&gt;&lt;p style=&quot;box-sizing: border-box; margin-top: 0px; margin-bottom: 1rem; color: rgb(33, 37, 41); font-family: system-ui, -apple-system, &amp;quot;Segoe UI&amp;quot;, Roboto, &amp;quot;Helvetica Neue&amp;quot;, &amp;quot;Noto Sans&amp;quot;, &amp;quot;Liberation Sans&amp;quot;, Arial, sans-serif, &amp;quot;Apple Color Emoji&amp;quot;, &amp;quot;Segoe UI Emoji&amp;quot;, &amp;quot;Segoe UI Symbol&amp;quot;, &amp;quot;Noto Color Emoji&amp;quot;; font-weight: 400; text-align: start; background-color: rgb(255, 255, 255);&quot;&gt;&lt;span style=&quot;box-sizing: border-box; font-weight: bolder;&quot;&gt;Incoming Time:&lt;/span&gt;&amp;nbsp;09:10&lt;/p&gt;&lt;p style=&quot;box-sizing: border-box; margin-top: 0px; margin-bottom: 1rem; color: rgb(33, 37, 41); font-family: system-ui, -apple-system, &amp;quot;Segoe UI&amp;quot;, Roboto, &amp;quot;Helvetica Neue&amp;quot;, &amp;quot;Noto Sans&amp;quot;, &amp;quot;Liberation Sans&amp;quot;, Arial, sans-serif, &amp;quot;Apple Color Emoji&amp;quot;, &amp;quot;Segoe UI Emoji&amp;quot;, &amp;quot;Segoe UI Symbol&amp;quot;, &amp;quot;Noto Color Emoji&amp;quot;; font-weight: 400; text-align: start; background-color: rgb(255, 255, 255);&quot;&gt;&lt;span style=&quot;box-sizing: border-box; font-weight: bolder;&quot;&gt;Outgoing Time:&lt;/span&gt;&amp;nbsp;17:06&lt;/p&gt;&lt;p style=&quot;box-sizing: border-box; margin-top: 0px; margin-bottom: 1rem; color: rgb(33, 37, 41); font-family: system-ui, -apple-system, &amp;quot;Segoe UI&amp;quot;, Roboto, &amp;quot;Helvetica Neue&amp;quot;, &amp;quot;Noto Sans&amp;quot;, &amp;quot;Liberation Sans&amp;quot;, Arial, sans-serif, &amp;quot;Apple Color Emoji&amp;quot;, &amp;quot;Segoe UI Emoji&amp;quot;, &amp;quot;Segoe UI Symbol&amp;quot;, &amp;quot;Noto Color Emoji&amp;quot;; font-weight: 400; text-align: start; background-color: rgb(255, 255, 255);&quot;&gt;&lt;span style=&quot;box-sizing: border-box; font-weight: bolder;&quot;&gt;Parking Slot:&lt;/span&gt;&amp;nbsp;A-2&lt;/p&gt;" style="text;html=1;align=center;verticalAlign=middle;whiteSpace=wrap;rounded=0;fontStyle=1;fontSize=16;" vertex="1" parent="1">
          <mxGeometry x="139.5" y="230" width="170" height="30" as="geometry" />
        </mxCell>
        <mxCell id="YdW8SJRkiYvQTzwNUpTn-142" value="Back to List" style="rounded=1;whiteSpace=wrap;html=1;fillColor=#3333FF;fontColor=#FFFFFF;" vertex="1" parent="1">
          <mxGeometry x="151.5" y="340.5" width="79" height="23" as="geometry" />
        </mxCell>
        <mxCell id="YdW8SJRkiYvQTzwNUpTn-143" value="" style="rounded=0;whiteSpace=wrap;html=1;" vertex="1" parent="1">
          <mxGeometry x="-370" y="-460" width="780" height="400" as="geometry" />
        </mxCell>
        <mxCell id="YdW8SJRkiYvQTzwNUpTn-144" value="&lt;h3&gt;&lt;font style=&quot;color: rgb(255, 255, 255);&quot;&gt;&amp;nbsp; &amp;nbsp; &amp;nbsp; &lt;font style=&quot;&quot;&gt;&lt;span style=&quot;font-size: 20px;&quot;&gt;Car Parking System&amp;nbsp; &amp;nbsp; &amp;nbsp; &amp;nbsp; &amp;nbsp; &amp;nbsp; &amp;nbsp; &amp;nbsp; &amp;nbsp; &amp;nbsp; &amp;nbsp; &amp;nbsp; &amp;nbsp; &amp;nbsp; &amp;nbsp; &amp;nbsp; &amp;nbsp;&lt;/span&gt;&lt;span style=&quot;font-weight: normal;&quot;&gt;&lt;font style=&quot;font-size: 18px;&quot;&gt;Home&amp;nbsp; &amp;nbsp;Add Car&lt;/font&gt;&lt;/span&gt;&lt;/font&gt;&lt;/font&gt;&lt;/h3&gt;" style="rounded=0;whiteSpace=wrap;html=1;align=left;fillColor=#3333FF;strokeColor=#3333FF;" vertex="1" parent="1">
          <mxGeometry x="-340" y="-440" width="660" height="50" as="geometry" />
        </mxCell>
        <mxCell id="YdW8SJRkiYvQTzwNUpTn-145" value="" style="shape=table;startSize=0;container=1;collapsible=0;childLayout=tableLayout;strokeColor=#CCCCCC;" vertex="1" parent="1">
          <mxGeometry x="-321" y="-326" width="621" height="96" as="geometry" />
        </mxCell>
        <mxCell id="YdW8SJRkiYvQTzwNUpTn-146" value="" style="shape=tableRow;horizontal=0;startSize=0;swimlaneHead=0;swimlaneBody=0;strokeColor=inherit;top=0;left=0;bottom=0;right=0;collapsible=0;dropTarget=0;fillColor=none;points=[[0,0.5],[1,0.5]];portConstraint=eastwest;" vertex="1" parent="YdW8SJRkiYvQTzwNUpTn-145">
          <mxGeometry width="621" height="40" as="geometry" />
        </mxCell>
        <mxCell id="YdW8SJRkiYvQTzwNUpTn-147" value="#" style="shape=partialRectangle;html=1;whiteSpace=wrap;connectable=0;strokeColor=inherit;overflow=hidden;fillColor=#000000;top=0;left=0;bottom=0;right=0;pointerEvents=1;fontStyle=1;fontColor=#FFFFFF;fontSize=12;" vertex="1" parent="YdW8SJRkiYvQTzwNUpTn-146">
          <mxGeometry width="30" height="40" as="geometry">
            <mxRectangle width="30" height="40" as="alternateBounds" />
          </mxGeometry>
        </mxCell>
        <mxCell id="YdW8SJRkiYvQTzwNUpTn-148" value="Car Brand" style="shape=partialRectangle;html=1;whiteSpace=wrap;connectable=0;strokeColor=inherit;overflow=hidden;fillColor=#000000;top=0;left=0;bottom=0;right=0;pointerEvents=1;fontStyle=1;fontColor=#FFFFFF;fontSize=12;" vertex="1" parent="YdW8SJRkiYvQTzwNUpTn-146">
          <mxGeometry x="30" width="70" height="40" as="geometry">
            <mxRectangle width="70" height="40" as="alternateBounds" />
          </mxGeometry>
        </mxCell>
        <mxCell id="YdW8SJRkiYvQTzwNUpTn-149" value="Car Number" style="shape=partialRectangle;html=1;whiteSpace=wrap;connectable=0;strokeColor=inherit;overflow=hidden;fillColor=#000000;top=0;left=0;bottom=0;right=0;pointerEvents=1;fontStyle=1;fontColor=#FFFFFF;fontSize=12;" vertex="1" parent="YdW8SJRkiYvQTzwNUpTn-146">
          <mxGeometry x="100" width="90" height="40" as="geometry">
            <mxRectangle width="90" height="40" as="alternateBounds" />
          </mxGeometry>
        </mxCell>
        <mxCell id="YdW8SJRkiYvQTzwNUpTn-150" value="Car Type" style="shape=partialRectangle;html=1;whiteSpace=wrap;connectable=0;strokeColor=inherit;overflow=hidden;fillColor=#000000;top=0;left=0;bottom=0;right=0;pointerEvents=1;fontStyle=1;fontColor=#FFFFFF;fontSize=12;" vertex="1" parent="YdW8SJRkiYvQTzwNUpTn-146">
          <mxGeometry x="190" width="60" height="40" as="geometry">
            <mxRectangle width="60" height="40" as="alternateBounds" />
          </mxGeometry>
        </mxCell>
        <mxCell id="YdW8SJRkiYvQTzwNUpTn-151" value="Incoming Time" style="shape=partialRectangle;html=1;whiteSpace=wrap;connectable=0;strokeColor=inherit;overflow=hidden;fillColor=#000000;top=0;left=0;bottom=0;right=0;pointerEvents=1;fontStyle=1;fontColor=#FFFFFF;fontSize=12;" vertex="1" parent="YdW8SJRkiYvQTzwNUpTn-146">
          <mxGeometry x="250" width="88" height="40" as="geometry">
            <mxRectangle width="88" height="40" as="alternateBounds" />
          </mxGeometry>
        </mxCell>
        <mxCell id="YdW8SJRkiYvQTzwNUpTn-152" value="Outgoing Time" style="shape=partialRectangle;html=1;whiteSpace=wrap;connectable=0;strokeColor=inherit;overflow=hidden;fillColor=#000000;top=0;left=0;bottom=0;right=0;pointerEvents=1;fontStyle=1;fontColor=#FFFFFF;fontSize=12;" vertex="1" parent="YdW8SJRkiYvQTzwNUpTn-146">
          <mxGeometry x="338" width="93" height="40" as="geometry">
            <mxRectangle width="93" height="40" as="alternateBounds" />
          </mxGeometry>
        </mxCell>
        <mxCell id="YdW8SJRkiYvQTzwNUpTn-153" value="Parking Slot" style="shape=partialRectangle;html=1;whiteSpace=wrap;connectable=0;strokeColor=inherit;overflow=hidden;fillColor=#000000;top=0;left=0;bottom=0;right=0;pointerEvents=1;fontStyle=1;fontColor=#FFFFFF;fontSize=12;" vertex="1" parent="YdW8SJRkiYvQTzwNUpTn-146">
          <mxGeometry x="431" width="80" height="40" as="geometry">
            <mxRectangle width="80" height="40" as="alternateBounds" />
          </mxGeometry>
        </mxCell>
        <mxCell id="YdW8SJRkiYvQTzwNUpTn-154" value="Action" style="shape=partialRectangle;html=1;whiteSpace=wrap;connectable=0;strokeColor=inherit;overflow=hidden;fillColor=#000000;top=0;left=0;bottom=0;right=0;pointerEvents=1;fontStyle=1;fontColor=#FFFFFF;fontSize=12;" vertex="1" parent="YdW8SJRkiYvQTzwNUpTn-146">
          <mxGeometry x="511" width="110" height="40" as="geometry">
            <mxRectangle width="110" height="40" as="alternateBounds" />
          </mxGeometry>
        </mxCell>
        <mxCell id="YdW8SJRkiYvQTzwNUpTn-155" value="" style="shape=tableRow;horizontal=0;startSize=0;swimlaneHead=0;swimlaneBody=0;strokeColor=inherit;top=0;left=0;bottom=0;right=0;collapsible=0;dropTarget=0;fillColor=none;points=[[0,0.5],[1,0.5]];portConstraint=eastwest;" vertex="1" parent="YdW8SJRkiYvQTzwNUpTn-145">
          <mxGeometry y="40" width="621" height="26" as="geometry" />
        </mxCell>
        <mxCell id="YdW8SJRkiYvQTzwNUpTn-156" value="1" style="shape=partialRectangle;html=1;whiteSpace=wrap;connectable=0;strokeColor=inherit;overflow=hidden;fillColor=none;top=0;left=0;bottom=0;right=0;pointerEvents=1;" vertex="1" parent="YdW8SJRkiYvQTzwNUpTn-155">
          <mxGeometry width="30" height="26" as="geometry">
            <mxRectangle width="30" height="26" as="alternateBounds" />
          </mxGeometry>
        </mxCell>
        <mxCell id="YdW8SJRkiYvQTzwNUpTn-157" value="Benz" style="shape=partialRectangle;html=1;whiteSpace=wrap;connectable=0;strokeColor=inherit;overflow=hidden;fillColor=none;top=0;left=0;bottom=0;right=0;pointerEvents=1;" vertex="1" parent="YdW8SJRkiYvQTzwNUpTn-155">
          <mxGeometry x="30" width="70" height="26" as="geometry">
            <mxRectangle width="70" height="26" as="alternateBounds" />
          </mxGeometry>
        </mxCell>
        <mxCell id="YdW8SJRkiYvQTzwNUpTn-158" value="KA-04 AR-1551" style="shape=partialRectangle;html=1;whiteSpace=wrap;connectable=0;strokeColor=inherit;overflow=hidden;fillColor=none;top=0;left=0;bottom=0;right=0;pointerEvents=1;" vertex="1" parent="YdW8SJRkiYvQTzwNUpTn-155">
          <mxGeometry x="100" width="90" height="26" as="geometry">
            <mxRectangle width="90" height="26" as="alternateBounds" />
          </mxGeometry>
        </mxCell>
        <mxCell id="YdW8SJRkiYvQTzwNUpTn-159" value="SUV" style="shape=partialRectangle;html=1;whiteSpace=wrap;connectable=0;strokeColor=inherit;overflow=hidden;fillColor=none;top=0;left=0;bottom=0;right=0;pointerEvents=1;" vertex="1" parent="YdW8SJRkiYvQTzwNUpTn-155">
          <mxGeometry x="190" width="60" height="26" as="geometry">
            <mxRectangle width="60" height="26" as="alternateBounds" />
          </mxGeometry>
        </mxCell>
        <mxCell id="YdW8SJRkiYvQTzwNUpTn-160" value="10:20" style="shape=partialRectangle;html=1;whiteSpace=wrap;connectable=0;strokeColor=inherit;overflow=hidden;fillColor=none;top=0;left=0;bottom=0;right=0;pointerEvents=1;" vertex="1" parent="YdW8SJRkiYvQTzwNUpTn-155">
          <mxGeometry x="250" width="88" height="26" as="geometry">
            <mxRectangle width="88" height="26" as="alternateBounds" />
          </mxGeometry>
        </mxCell>
        <mxCell id="YdW8SJRkiYvQTzwNUpTn-161" value="12:24" style="shape=partialRectangle;html=1;whiteSpace=wrap;connectable=0;strokeColor=inherit;overflow=hidden;fillColor=none;top=0;left=0;bottom=0;right=0;pointerEvents=1;" vertex="1" parent="YdW8SJRkiYvQTzwNUpTn-155">
          <mxGeometry x="338" width="93" height="26" as="geometry">
            <mxRectangle width="93" height="26" as="alternateBounds" />
          </mxGeometry>
        </mxCell>
        <mxCell id="YdW8SJRkiYvQTzwNUpTn-162" value="A-1" style="shape=partialRectangle;html=1;whiteSpace=wrap;connectable=0;strokeColor=inherit;overflow=hidden;fillColor=none;top=0;left=0;bottom=0;right=0;pointerEvents=1;" vertex="1" parent="YdW8SJRkiYvQTzwNUpTn-155">
          <mxGeometry x="431" width="80" height="26" as="geometry">
            <mxRectangle width="80" height="26" as="alternateBounds" />
          </mxGeometry>
        </mxCell>
        <mxCell id="YdW8SJRkiYvQTzwNUpTn-163" value="" style="shape=partialRectangle;html=1;whiteSpace=wrap;connectable=0;strokeColor=inherit;overflow=hidden;fillColor=none;top=0;left=0;bottom=0;right=0;pointerEvents=1;" vertex="1" parent="YdW8SJRkiYvQTzwNUpTn-155">
          <mxGeometry x="511" width="110" height="26" as="geometry">
            <mxRectangle width="110" height="26" as="alternateBounds" />
          </mxGeometry>
        </mxCell>
        <mxCell id="YdW8SJRkiYvQTzwNUpTn-164" value="" style="shape=tableRow;horizontal=0;startSize=0;swimlaneHead=0;swimlaneBody=0;strokeColor=inherit;top=0;left=0;bottom=0;right=0;collapsible=0;dropTarget=0;fillColor=none;points=[[0,0.5],[1,0.5]];portConstraint=eastwest;" vertex="1" parent="YdW8SJRkiYvQTzwNUpTn-145">
          <mxGeometry y="66" width="621" height="30" as="geometry" />
        </mxCell>
        <mxCell id="YdW8SJRkiYvQTzwNUpTn-165" value="2" style="shape=partialRectangle;html=1;whiteSpace=wrap;connectable=0;strokeColor=inherit;overflow=hidden;fillColor=none;top=0;left=0;bottom=0;right=0;pointerEvents=1;" vertex="1" parent="YdW8SJRkiYvQTzwNUpTn-164">
          <mxGeometry width="30" height="30" as="geometry">
            <mxRectangle width="30" height="30" as="alternateBounds" />
          </mxGeometry>
        </mxCell>
        <mxCell id="YdW8SJRkiYvQTzwNUpTn-166" value="Audi" style="shape=partialRectangle;html=1;whiteSpace=wrap;connectable=0;strokeColor=inherit;overflow=hidden;fillColor=none;top=0;left=0;bottom=0;right=0;pointerEvents=1;" vertex="1" parent="YdW8SJRkiYvQTzwNUpTn-164">
          <mxGeometry x="30" width="70" height="30" as="geometry">
            <mxRectangle width="70" height="30" as="alternateBounds" />
          </mxGeometry>
        </mxCell>
        <mxCell id="YdW8SJRkiYvQTzwNUpTn-167" value="KA-01 AJ-2001" style="shape=partialRectangle;html=1;whiteSpace=wrap;connectable=0;strokeColor=inherit;overflow=hidden;fillColor=none;top=0;left=0;bottom=0;right=0;pointerEvents=1;" vertex="1" parent="YdW8SJRkiYvQTzwNUpTn-164">
          <mxGeometry x="100" width="90" height="30" as="geometry">
            <mxRectangle width="90" height="30" as="alternateBounds" />
          </mxGeometry>
        </mxCell>
        <mxCell id="YdW8SJRkiYvQTzwNUpTn-168" value="XUV" style="shape=partialRectangle;html=1;whiteSpace=wrap;connectable=0;strokeColor=inherit;overflow=hidden;fillColor=none;top=0;left=0;bottom=0;right=0;pointerEvents=1;" vertex="1" parent="YdW8SJRkiYvQTzwNUpTn-164">
          <mxGeometry x="190" width="60" height="30" as="geometry">
            <mxRectangle width="60" height="30" as="alternateBounds" />
          </mxGeometry>
        </mxCell>
        <mxCell id="YdW8SJRkiYvQTzwNUpTn-169" value="07:30" style="shape=partialRectangle;html=1;whiteSpace=wrap;connectable=0;strokeColor=inherit;overflow=hidden;fillColor=none;top=0;left=0;bottom=0;right=0;pointerEvents=1;" vertex="1" parent="YdW8SJRkiYvQTzwNUpTn-164">
          <mxGeometry x="250" width="88" height="30" as="geometry">
            <mxRectangle width="88" height="30" as="alternateBounds" />
          </mxGeometry>
        </mxCell>
        <mxCell id="YdW8SJRkiYvQTzwNUpTn-170" value="14:30" style="shape=partialRectangle;html=1;whiteSpace=wrap;connectable=0;strokeColor=inherit;overflow=hidden;fillColor=none;top=0;left=0;bottom=0;right=0;pointerEvents=1;" vertex="1" parent="YdW8SJRkiYvQTzwNUpTn-164">
          <mxGeometry x="338" width="93" height="30" as="geometry">
            <mxRectangle width="93" height="30" as="alternateBounds" />
          </mxGeometry>
        </mxCell>
        <mxCell id="YdW8SJRkiYvQTzwNUpTn-171" value="B-1" style="shape=partialRectangle;html=1;whiteSpace=wrap;connectable=0;strokeColor=inherit;overflow=hidden;fillColor=none;top=0;left=0;bottom=0;right=0;pointerEvents=1;" vertex="1" parent="YdW8SJRkiYvQTzwNUpTn-164">
          <mxGeometry x="431" width="80" height="30" as="geometry">
            <mxRectangle width="80" height="30" as="alternateBounds" />
          </mxGeometry>
        </mxCell>
        <mxCell id="YdW8SJRkiYvQTzwNUpTn-172" value="" style="shape=partialRectangle;html=1;whiteSpace=wrap;connectable=0;strokeColor=inherit;overflow=hidden;fillColor=none;top=0;left=0;bottom=0;right=0;pointerEvents=1;" vertex="1" parent="YdW8SJRkiYvQTzwNUpTn-164">
          <mxGeometry x="511" width="110" height="30" as="geometry">
            <mxRectangle width="110" height="30" as="alternateBounds" />
          </mxGeometry>
        </mxCell>
        <mxCell id="YdW8SJRkiYvQTzwNUpTn-173" value="Car Parking List" style="text;html=1;align=center;verticalAlign=middle;whiteSpace=wrap;rounded=0;fontStyle=1;fontSize=16;" vertex="1" parent="1">
          <mxGeometry x="-334" y="-360" width="170" height="30" as="geometry" />
        </mxCell>
        <mxCell id="YdW8SJRkiYvQTzwNUpTn-174" value="Add New Car" style="rounded=1;whiteSpace=wrap;html=1;fillColor=#55AB51;fontColor=#FFFFFF;" vertex="1" parent="1">
          <mxGeometry x="200" y="-370" width="80" height="30" as="geometry" />
        </mxCell>
        <mxCell id="YdW8SJRkiYvQTzwNUpTn-175" value="&lt;font style=&quot;font-size: 8px;&quot;&gt;View&lt;/font&gt;" style="rounded=1;whiteSpace=wrap;html=1;fillColor=#28FFF7;fontColor=#4D4D4D;" vertex="1" parent="1">
          <mxGeometry x="195" y="-283" width="30" height="20" as="geometry" />
        </mxCell>
        <mxCell id="YdW8SJRkiYvQTzwNUpTn-176" value="&lt;font style=&quot;font-size: 8px;&quot;&gt;Edit&lt;/font&gt;" style="rounded=1;whiteSpace=wrap;html=1;fillColor=#FFFF66;fontColor=#000000;" vertex="1" parent="1">
          <mxGeometry x="229" y="-283" width="30" height="20" as="geometry" />
        </mxCell>
        <mxCell id="YdW8SJRkiYvQTzwNUpTn-177" value="&lt;font style=&quot;font-size: 8px;&quot;&gt;Delete&lt;/font&gt;" style="rounded=1;whiteSpace=wrap;html=1;fillColor=#CC0000;fontColor=#FFFFFF;" vertex="1" parent="1">
          <mxGeometry x="263" y="-283" width="30" height="20" as="geometry" />
        </mxCell>
        <mxCell id="YdW8SJRkiYvQTzwNUpTn-178" value="&lt;font style=&quot;font-size: 8px;&quot;&gt;View&lt;/font&gt;" style="rounded=1;whiteSpace=wrap;html=1;fillColor=#28FFF7;fontColor=#4D4D4D;" vertex="1" parent="1">
          <mxGeometry x="195" y="-255" width="30" height="20" as="geometry" />
        </mxCell>
        <mxCell id="YdW8SJRkiYvQTzwNUpTn-179" value="&lt;font style=&quot;font-size: 8px;&quot;&gt;Edit&lt;/font&gt;" style="rounded=1;whiteSpace=wrap;html=1;fillColor=#FFFF66;fontColor=#000000;" vertex="1" parent="1">
          <mxGeometry x="229" y="-255" width="30" height="20" as="geometry" />
        </mxCell>
        <mxCell id="YdW8SJRkiYvQTzwNUpTn-180" value="&lt;font style=&quot;font-size: 8px;&quot;&gt;Delete&lt;/font&gt;" style="rounded=1;whiteSpace=wrap;html=1;fillColor=#CC0000;fontColor=#FFFFFF;" vertex="1" parent="1">
          <mxGeometry x="263" y="-255" width="30" height="20" as="geometry" />
        </mxCell>
        <mxCell id="YdW8SJRkiYvQTzwNUpTn-181" value="" style="rounded=0;whiteSpace=wrap;html=1;" vertex="1" parent="1">
          <mxGeometry x="-210" y="-400" width="380" height="90" as="geometry" />
        </mxCell>
        <mxCell id="YdW8SJRkiYvQTzwNUpTn-182" value="Confirm Deletion" style="text;html=1;align=center;verticalAlign=middle;whiteSpace=wrap;rounded=0;fontStyle=1;fontSize=14;" vertex="1" parent="1">
          <mxGeometry x="-202" y="-395" width="123" height="30" as="geometry" />
        </mxCell>
        <mxCell id="YdW8SJRkiYvQTzwNUpTn-183" value="" style="endArrow=none;html=1;rounded=0;fontSize=12;startSize=8;endSize=7;curved=0;exitX=-0.003;exitY=0.35;exitDx=0;exitDy=0;entryX=1;entryY=0.333;entryDx=0;entryDy=0;entryPerimeter=0;exitPerimeter=0;strokeColor=#CCCCCC;" edge="1" parent="1">
          <mxGeometry width="50" height="50" relative="1" as="geometry">
            <mxPoint x="-210.1400000000001" y="-364.4999999999998" as="sourcePoint" />
            <mxPoint x="171" y="-366.03" as="targetPoint" />
          </mxGeometry>
        </mxCell>
        <mxCell id="YdW8SJRkiYvQTzwNUpTn-184" value="" style="endArrow=none;html=1;rounded=0;fontSize=12;startSize=8;endSize=7;curved=0;exitX=-0.003;exitY=0.35;exitDx=0;exitDy=0;entryX=1;entryY=0.333;entryDx=0;entryDy=0;entryPerimeter=0;exitPerimeter=0;strokeColor=#CCCCCC;" edge="1" parent="1">
          <mxGeometry width="50" height="50" relative="1" as="geometry">
            <mxPoint x="-209.1400000000001" y="-339.4999999999998" as="sourcePoint" />
            <mxPoint x="172" y="-341.03" as="targetPoint" />
          </mxGeometry>
        </mxCell>
        <mxCell id="YdW8SJRkiYvQTzwNUpTn-185" value="&lt;span style=&quot;color: rgb(33, 37, 41); font-family: system-ui, -apple-system, &amp;quot;Segoe UI&amp;quot;, Roboto, &amp;quot;Helvetica Neue&amp;quot;, &amp;quot;Noto Sans&amp;quot;, &amp;quot;Liberation Sans&amp;quot;, Arial, sans-serif, &amp;quot;Apple Color Emoji&amp;quot;, &amp;quot;Segoe UI Emoji&amp;quot;, &amp;quot;Segoe UI Symbol&amp;quot;, &amp;quot;Noto Color Emoji&amp;quot;; text-align: start;&quot;&gt;&lt;font&gt;Are you sure you want to delete this car?&lt;/font&gt;&lt;/span&gt;" style="text;html=1;align=center;verticalAlign=middle;whiteSpace=wrap;rounded=0;" vertex="1" parent="1">
          <mxGeometry x="-249.5" y="-367" width="320.5" height="30" as="geometry" />
        </mxCell>
        <mxCell id="YdW8SJRkiYvQTzwNUpTn-186" value="&lt;font style=&quot;font-size: 8px;&quot;&gt;Cancel&lt;/font&gt;" style="rounded=1;whiteSpace=wrap;html=1;fillColor=#808080;fontColor=#FFFFFF;verticalAlign=bottom;" vertex="1" parent="1">
          <mxGeometry x="79" y="-335" width="31" height="15" as="geometry" />
        </mxCell>
        <mxCell id="YdW8SJRkiYvQTzwNUpTn-187" value="&lt;font style=&quot;font-size: 8px; line-height: 100%;&quot;&gt;Delete&lt;/font&gt;" style="rounded=1;whiteSpace=wrap;html=1;fillColor=#FF0000;fontColor=#FFFFFF;strokeWidth=1;verticalAlign=bottom;" vertex="1" parent="1">
          <mxGeometry x="115" y="-335" width="27" height="15" as="geometry" />
        </mxCell>
        <mxCell id="YdW8SJRkiYvQTzwNUpTn-188" value="X" style="text;html=1;align=center;verticalAlign=middle;whiteSpace=wrap;rounded=0;fontStyle=0;fontSize=14;" vertex="1" parent="1">
          <mxGeometry x="86" y="-395" width="123" height="30" as="geometry" />
        </mxCell>
        <mxCell id="YdW8SJRkiYvQTzwNUpTn-189" value="" style="rounded=0;whiteSpace=wrap;html=1;" vertex="1" parent="1">
          <mxGeometry x="-809" y="-952" width="789" height="400" as="geometry" />
        </mxCell>
        <mxCell id="YdW8SJRkiYvQTzwNUpTn-190" value="&lt;h3&gt;&lt;font style=&quot;color: rgb(255, 255, 255);&quot;&gt;&amp;nbsp; &amp;nbsp; &amp;nbsp; Flight Management System&lt;span style=&quot;font-size: 20px;&quot;&gt;&amp;nbsp; &amp;nbsp; &amp;nbsp; &amp;nbsp; &amp;nbsp; &amp;nbsp; &amp;nbsp; &amp;nbsp; &amp;nbsp; &amp;nbsp; &amp;nbsp; &amp;nbsp; &amp;nbsp; &amp;nbsp; &amp;nbsp; &amp;nbsp; &amp;nbsp; &amp;nbsp; &amp;nbsp; &amp;nbsp; &amp;nbsp; &amp;nbsp; &amp;nbsp; &amp;nbsp; &amp;nbsp;&lt;/span&gt;&lt;span style=&quot;font-weight: normal;&quot;&gt;&lt;font style=&quot;font-size: 18px;&quot;&gt;Home&amp;nbsp; &amp;nbsp;Add Flight&lt;/font&gt;&lt;/span&gt;&lt;/font&gt;&lt;/h3&gt;" style="rounded=0;whiteSpace=wrap;html=1;align=left;fillColor=#3333FF;strokeColor=#3333FF;" vertex="1" parent="1">
          <mxGeometry x="-780" y="-930" width="660" height="50" as="geometry" />
        </mxCell>
        <mxCell id="YdW8SJRkiYvQTzwNUpTn-191" value="" style="shape=table;startSize=0;container=1;collapsible=0;childLayout=tableLayout;strokeColor=#CCCCCC;" vertex="1" parent="1">
          <mxGeometry x="-761" y="-810.75" width="701" height="95.5" as="geometry" />
        </mxCell>
        <mxCell id="YdW8SJRkiYvQTzwNUpTn-192" value="" style="shape=tableRow;horizontal=0;startSize=0;swimlaneHead=0;swimlaneBody=0;strokeColor=inherit;top=0;left=0;bottom=0;right=0;collapsible=0;dropTarget=0;fillColor=none;points=[[0,0.5],[1,0.5]];portConstraint=eastwest;" vertex="1" parent="YdW8SJRkiYvQTzwNUpTn-191">
          <mxGeometry width="701" height="40" as="geometry" />
        </mxCell>
        <mxCell id="YdW8SJRkiYvQTzwNUpTn-193" value="#" style="shape=partialRectangle;html=1;whiteSpace=wrap;connectable=0;strokeColor=inherit;overflow=hidden;fillColor=#000000;top=0;left=0;bottom=0;right=0;pointerEvents=1;fontStyle=1;fontColor=#FFFFFF;fontSize=12;" vertex="1" parent="YdW8SJRkiYvQTzwNUpTn-192">
          <mxGeometry width="30" height="40" as="geometry">
            <mxRectangle width="30" height="40" as="alternateBounds" />
          </mxGeometry>
        </mxCell>
        <mxCell id="YdW8SJRkiYvQTzwNUpTn-194" value="Airline" style="shape=partialRectangle;html=1;whiteSpace=wrap;connectable=0;strokeColor=inherit;overflow=hidden;fillColor=#000000;top=0;left=0;bottom=0;right=0;pointerEvents=1;fontStyle=1;fontColor=#FFFFFF;fontSize=12;" vertex="1" parent="YdW8SJRkiYvQTzwNUpTn-192">
          <mxGeometry x="30" width="70" height="40" as="geometry">
            <mxRectangle width="70" height="40" as="alternateBounds" />
          </mxGeometry>
        </mxCell>
        <mxCell id="YdW8SJRkiYvQTzwNUpTn-195" value="Flight Number" style="shape=partialRectangle;html=1;whiteSpace=wrap;connectable=0;strokeColor=inherit;overflow=hidden;fillColor=#000000;top=0;left=0;bottom=0;right=0;pointerEvents=1;fontStyle=1;fontColor=#FFFFFF;fontSize=12;" vertex="1" parent="YdW8SJRkiYvQTzwNUpTn-192">
          <mxGeometry x="100" width="90" height="40" as="geometry">
            <mxRectangle width="90" height="40" as="alternateBounds" />
          </mxGeometry>
        </mxCell>
        <mxCell id="YdW8SJRkiYvQTzwNUpTn-196" value="&lt;span style=&quot;font-family: system-ui, -apple-system, &amp;quot;Segoe UI&amp;quot;, Roboto, &amp;quot;Helvetica Neue&amp;quot;, &amp;quot;Noto Sans&amp;quot;, &amp;quot;Liberation Sans&amp;quot;, Arial, sans-serif, &amp;quot;Apple Color Emoji&amp;quot;, &amp;quot;Segoe UI Emoji&amp;quot;, &amp;quot;Segoe UI Symbol&amp;quot;, &amp;quot;Noto Color Emoji&amp;quot;; text-align: left; background-color: rgb(33, 37, 41);&quot;&gt;&lt;font style=&quot;font-size: 11px;&quot;&gt;Departure&lt;/font&gt;&lt;/span&gt;" style="shape=partialRectangle;html=1;whiteSpace=wrap;connectable=0;strokeColor=inherit;overflow=hidden;fillColor=#000000;top=0;left=0;bottom=0;right=0;pointerEvents=1;fontStyle=1;fontColor=#FFFFFF;fontSize=12;" vertex="1" parent="YdW8SJRkiYvQTzwNUpTn-192">
          <mxGeometry x="190" width="60" height="40" as="geometry">
            <mxRectangle width="60" height="40" as="alternateBounds" />
          </mxGeometry>
        </mxCell>
        <mxCell id="YdW8SJRkiYvQTzwNUpTn-197" value="&lt;span style=&quot;font-family: system-ui, -apple-system, &amp;quot;Segoe UI&amp;quot;, Roboto, &amp;quot;Helvetica Neue&amp;quot;, &amp;quot;Noto Sans&amp;quot;, &amp;quot;Liberation Sans&amp;quot;, Arial, sans-serif, &amp;quot;Apple Color Emoji&amp;quot;, &amp;quot;Segoe UI Emoji&amp;quot;, &amp;quot;Segoe UI Symbol&amp;quot;, &amp;quot;Noto Color Emoji&amp;quot;; text-align: left; background-color: rgb(33, 37, 41);&quot;&gt;&lt;font style=&quot;font-size: 14px;&quot;&gt;Arrival&lt;/font&gt;&lt;/span&gt;" style="shape=partialRectangle;html=1;whiteSpace=wrap;connectable=0;strokeColor=inherit;overflow=hidden;fillColor=#000000;top=0;left=0;bottom=0;right=0;pointerEvents=1;fontStyle=1;fontColor=#FFFFFF;fontSize=12;" vertex="1" parent="YdW8SJRkiYvQTzwNUpTn-192">
          <mxGeometry x="250" width="88" height="40" as="geometry">
            <mxRectangle width="88" height="40" as="alternateBounds" />
          </mxGeometry>
        </mxCell>
        <mxCell id="YdW8SJRkiYvQTzwNUpTn-198" value="Departure Time" style="shape=partialRectangle;html=1;whiteSpace=wrap;connectable=0;strokeColor=inherit;overflow=hidden;fillColor=#000000;top=0;left=0;bottom=0;right=0;pointerEvents=1;fontStyle=1;fontColor=#FFFFFF;fontSize=12;" vertex="1" parent="YdW8SJRkiYvQTzwNUpTn-192">
          <mxGeometry x="338" width="93" height="40" as="geometry">
            <mxRectangle width="93" height="40" as="alternateBounds" />
          </mxGeometry>
        </mxCell>
        <mxCell id="YdW8SJRkiYvQTzwNUpTn-199" value="Arrival-Time" style="shape=partialRectangle;html=1;whiteSpace=wrap;connectable=0;strokeColor=inherit;overflow=hidden;fillColor=#000000;top=0;left=0;bottom=0;right=0;pointerEvents=1;fontStyle=1;fontColor=#FFFFFF;fontSize=12;" vertex="1" parent="YdW8SJRkiYvQTzwNUpTn-192">
          <mxGeometry x="431" width="80" height="40" as="geometry">
            <mxRectangle width="80" height="40" as="alternateBounds" />
          </mxGeometry>
        </mxCell>
        <mxCell id="YdW8SJRkiYvQTzwNUpTn-321" style="shape=partialRectangle;html=1;whiteSpace=wrap;connectable=0;strokeColor=inherit;overflow=hidden;fillColor=#000000;top=0;left=0;bottom=0;right=0;pointerEvents=1;fontStyle=1;fontColor=#FFFFFF;fontSize=12;" vertex="1" parent="YdW8SJRkiYvQTzwNUpTn-192">
          <mxGeometry x="511" width="80" height="40" as="geometry">
            <mxRectangle width="80" height="40" as="alternateBounds" />
          </mxGeometry>
        </mxCell>
        <mxCell id="YdW8SJRkiYvQTzwNUpTn-200" value="Action" style="shape=partialRectangle;html=1;whiteSpace=wrap;connectable=0;strokeColor=inherit;overflow=hidden;fillColor=#000000;top=0;left=0;bottom=0;right=0;pointerEvents=1;fontStyle=1;fontColor=#FFFFFF;fontSize=12;" vertex="1" parent="YdW8SJRkiYvQTzwNUpTn-192">
          <mxGeometry x="591" width="110" height="40" as="geometry">
            <mxRectangle width="110" height="40" as="alternateBounds" />
          </mxGeometry>
        </mxCell>
        <mxCell id="YdW8SJRkiYvQTzwNUpTn-201" value="" style="shape=tableRow;horizontal=0;startSize=0;swimlaneHead=0;swimlaneBody=0;strokeColor=inherit;top=0;left=0;bottom=0;right=0;collapsible=0;dropTarget=0;fillColor=none;points=[[0,0.5],[1,0.5]];portConstraint=eastwest;" vertex="1" parent="YdW8SJRkiYvQTzwNUpTn-191">
          <mxGeometry y="40" width="701" height="26" as="geometry" />
        </mxCell>
        <mxCell id="YdW8SJRkiYvQTzwNUpTn-202" value="1" style="shape=partialRectangle;html=1;whiteSpace=wrap;connectable=0;strokeColor=inherit;overflow=hidden;fillColor=none;top=0;left=0;bottom=0;right=0;pointerEvents=1;" vertex="1" parent="YdW8SJRkiYvQTzwNUpTn-201">
          <mxGeometry width="30" height="26" as="geometry">
            <mxRectangle width="30" height="26" as="alternateBounds" />
          </mxGeometry>
        </mxCell>
        <mxCell id="YdW8SJRkiYvQTzwNUpTn-203" value="Air India" style="shape=partialRectangle;html=1;whiteSpace=wrap;connectable=0;strokeColor=inherit;overflow=hidden;fillColor=none;top=0;left=0;bottom=0;right=0;pointerEvents=1;" vertex="1" parent="YdW8SJRkiYvQTzwNUpTn-201">
          <mxGeometry x="30" width="70" height="26" as="geometry">
            <mxRectangle width="70" height="26" as="alternateBounds" />
          </mxGeometry>
        </mxCell>
        <mxCell id="YdW8SJRkiYvQTzwNUpTn-204" value="Ai-010" style="shape=partialRectangle;html=1;whiteSpace=wrap;connectable=0;strokeColor=inherit;overflow=hidden;fillColor=none;top=0;left=0;bottom=0;right=0;pointerEvents=1;" vertex="1" parent="YdW8SJRkiYvQTzwNUpTn-201">
          <mxGeometry x="100" width="90" height="26" as="geometry">
            <mxRectangle width="90" height="26" as="alternateBounds" />
          </mxGeometry>
        </mxCell>
        <mxCell id="YdW8SJRkiYvQTzwNUpTn-205" value="Mumbai" style="shape=partialRectangle;html=1;whiteSpace=wrap;connectable=0;strokeColor=inherit;overflow=hidden;fillColor=none;top=0;left=0;bottom=0;right=0;pointerEvents=1;" vertex="1" parent="YdW8SJRkiYvQTzwNUpTn-201">
          <mxGeometry x="190" width="60" height="26" as="geometry">
            <mxRectangle width="60" height="26" as="alternateBounds" />
          </mxGeometry>
        </mxCell>
        <mxCell id="YdW8SJRkiYvQTzwNUpTn-206" value="Korea" style="shape=partialRectangle;html=1;whiteSpace=wrap;connectable=0;strokeColor=inherit;overflow=hidden;fillColor=none;top=0;left=0;bottom=0;right=0;pointerEvents=1;" vertex="1" parent="YdW8SJRkiYvQTzwNUpTn-201">
          <mxGeometry x="250" width="88" height="26" as="geometry">
            <mxRectangle width="88" height="26" as="alternateBounds" />
          </mxGeometry>
        </mxCell>
        <mxCell id="YdW8SJRkiYvQTzwNUpTn-207" value="12:24" style="shape=partialRectangle;html=1;whiteSpace=wrap;connectable=0;strokeColor=inherit;overflow=hidden;fillColor=none;top=0;left=0;bottom=0;right=0;pointerEvents=1;" vertex="1" parent="YdW8SJRkiYvQTzwNUpTn-201">
          <mxGeometry x="338" width="93" height="26" as="geometry">
            <mxRectangle width="93" height="26" as="alternateBounds" />
          </mxGeometry>
        </mxCell>
        <mxCell id="YdW8SJRkiYvQTzwNUpTn-208" value="14:00" style="shape=partialRectangle;html=1;whiteSpace=wrap;connectable=0;strokeColor=inherit;overflow=hidden;fillColor=none;top=0;left=0;bottom=0;right=0;pointerEvents=1;" vertex="1" parent="YdW8SJRkiYvQTzwNUpTn-201">
          <mxGeometry x="431" width="80" height="26" as="geometry">
            <mxRectangle width="80" height="26" as="alternateBounds" />
          </mxGeometry>
        </mxCell>
        <mxCell id="YdW8SJRkiYvQTzwNUpTn-322" style="shape=partialRectangle;html=1;whiteSpace=wrap;connectable=0;strokeColor=inherit;overflow=hidden;fillColor=none;top=0;left=0;bottom=0;right=0;pointerEvents=1;" vertex="1" parent="YdW8SJRkiYvQTzwNUpTn-201">
          <mxGeometry x="511" width="80" height="26" as="geometry">
            <mxRectangle width="80" height="26" as="alternateBounds" />
          </mxGeometry>
        </mxCell>
        <mxCell id="YdW8SJRkiYvQTzwNUpTn-209" value="" style="shape=partialRectangle;html=1;whiteSpace=wrap;connectable=0;strokeColor=inherit;overflow=hidden;fillColor=none;top=0;left=0;bottom=0;right=0;pointerEvents=1;" vertex="1" parent="YdW8SJRkiYvQTzwNUpTn-201">
          <mxGeometry x="591" width="110" height="26" as="geometry">
            <mxRectangle width="110" height="26" as="alternateBounds" />
          </mxGeometry>
        </mxCell>
        <mxCell id="YdW8SJRkiYvQTzwNUpTn-210" value="" style="shape=tableRow;horizontal=0;startSize=0;swimlaneHead=0;swimlaneBody=0;strokeColor=inherit;top=0;left=0;bottom=0;right=0;collapsible=0;dropTarget=0;fillColor=none;points=[[0,0.5],[1,0.5]];portConstraint=eastwest;" vertex="1" parent="YdW8SJRkiYvQTzwNUpTn-191">
          <mxGeometry y="66" width="701" height="30" as="geometry" />
        </mxCell>
        <mxCell id="YdW8SJRkiYvQTzwNUpTn-211" value="2" style="shape=partialRectangle;html=1;whiteSpace=wrap;connectable=0;strokeColor=inherit;overflow=hidden;fillColor=none;top=0;left=0;bottom=0;right=0;pointerEvents=1;" vertex="1" parent="YdW8SJRkiYvQTzwNUpTn-210">
          <mxGeometry width="30" height="30" as="geometry">
            <mxRectangle width="30" height="30" as="alternateBounds" />
          </mxGeometry>
        </mxCell>
        <mxCell id="YdW8SJRkiYvQTzwNUpTn-212" value="Emirates" style="shape=partialRectangle;html=1;whiteSpace=wrap;connectable=0;strokeColor=inherit;overflow=hidden;fillColor=none;top=0;left=0;bottom=0;right=0;pointerEvents=1;" vertex="1" parent="YdW8SJRkiYvQTzwNUpTn-210">
          <mxGeometry x="30" width="70" height="30" as="geometry">
            <mxRectangle width="70" height="30" as="alternateBounds" />
          </mxGeometry>
        </mxCell>
        <mxCell id="YdW8SJRkiYvQTzwNUpTn-213" value="EM_100" style="shape=partialRectangle;html=1;whiteSpace=wrap;connectable=0;strokeColor=inherit;overflow=hidden;fillColor=none;top=0;left=0;bottom=0;right=0;pointerEvents=1;" vertex="1" parent="YdW8SJRkiYvQTzwNUpTn-210">
          <mxGeometry x="100" width="90" height="30" as="geometry">
            <mxRectangle width="90" height="30" as="alternateBounds" />
          </mxGeometry>
        </mxCell>
        <mxCell id="YdW8SJRkiYvQTzwNUpTn-214" value="Karnataka" style="shape=partialRectangle;html=1;whiteSpace=wrap;connectable=0;strokeColor=inherit;overflow=hidden;fillColor=none;top=0;left=0;bottom=0;right=0;pointerEvents=1;" vertex="1" parent="YdW8SJRkiYvQTzwNUpTn-210">
          <mxGeometry x="190" width="60" height="30" as="geometry">
            <mxRectangle width="60" height="30" as="alternateBounds" />
          </mxGeometry>
        </mxCell>
        <mxCell id="YdW8SJRkiYvQTzwNUpTn-215" value="UAE" style="shape=partialRectangle;html=1;whiteSpace=wrap;connectable=0;strokeColor=inherit;overflow=hidden;fillColor=none;top=0;left=0;bottom=0;right=0;pointerEvents=1;" vertex="1" parent="YdW8SJRkiYvQTzwNUpTn-210">
          <mxGeometry x="250" width="88" height="30" as="geometry">
            <mxRectangle width="88" height="30" as="alternateBounds" />
          </mxGeometry>
        </mxCell>
        <mxCell id="YdW8SJRkiYvQTzwNUpTn-216" value="14:30" style="shape=partialRectangle;html=1;whiteSpace=wrap;connectable=0;strokeColor=inherit;overflow=hidden;fillColor=none;top=0;left=0;bottom=0;right=0;pointerEvents=1;" vertex="1" parent="YdW8SJRkiYvQTzwNUpTn-210">
          <mxGeometry x="338" width="93" height="30" as="geometry">
            <mxRectangle width="93" height="30" as="alternateBounds" />
          </mxGeometry>
        </mxCell>
        <mxCell id="YdW8SJRkiYvQTzwNUpTn-217" value="16:00" style="shape=partialRectangle;html=1;whiteSpace=wrap;connectable=0;strokeColor=inherit;overflow=hidden;fillColor=none;top=0;left=0;bottom=0;right=0;pointerEvents=1;" vertex="1" parent="YdW8SJRkiYvQTzwNUpTn-210">
          <mxGeometry x="431" width="80" height="30" as="geometry">
            <mxRectangle width="80" height="30" as="alternateBounds" />
          </mxGeometry>
        </mxCell>
        <mxCell id="YdW8SJRkiYvQTzwNUpTn-323" value="E-5" style="shape=partialRectangle;html=1;whiteSpace=wrap;connectable=0;strokeColor=inherit;overflow=hidden;fillColor=none;top=0;left=0;bottom=0;right=0;pointerEvents=1;" vertex="1" parent="YdW8SJRkiYvQTzwNUpTn-210">
          <mxGeometry x="511" width="80" height="30" as="geometry">
            <mxRectangle width="80" height="30" as="alternateBounds" />
          </mxGeometry>
        </mxCell>
        <mxCell id="YdW8SJRkiYvQTzwNUpTn-218" value="" style="shape=partialRectangle;html=1;whiteSpace=wrap;connectable=0;strokeColor=inherit;overflow=hidden;fillColor=none;top=0;left=0;bottom=0;right=0;pointerEvents=1;" vertex="1" parent="YdW8SJRkiYvQTzwNUpTn-210">
          <mxGeometry x="591" width="110" height="30" as="geometry">
            <mxRectangle width="110" height="30" as="alternateBounds" />
          </mxGeometry>
        </mxCell>
        <mxCell id="YdW8SJRkiYvQTzwNUpTn-219" value="Car Parking List" style="text;html=1;align=center;verticalAlign=middle;whiteSpace=wrap;rounded=0;fontStyle=1;fontSize=16;" vertex="1" parent="1">
          <mxGeometry x="-774" y="-850" width="170" height="30" as="geometry" />
        </mxCell>
        <mxCell id="YdW8SJRkiYvQTzwNUpTn-220" value="Add New flight" style="rounded=1;whiteSpace=wrap;html=1;fillColor=#55AB51;fontColor=#FFFFFF;" vertex="1" parent="1">
          <mxGeometry x="-240" y="-860" width="80" height="30" as="geometry" />
        </mxCell>
        <mxCell id="YdW8SJRkiYvQTzwNUpTn-221" value="&lt;font style=&quot;font-size: 8px;&quot;&gt;View&lt;/font&gt;" style="rounded=1;whiteSpace=wrap;html=1;fillColor=#28FFF7;fontColor=#4D4D4D;" vertex="1" parent="1">
          <mxGeometry x="-164" y="-768" width="30" height="20" as="geometry" />
        </mxCell>
        <mxCell id="YdW8SJRkiYvQTzwNUpTn-222" value="&lt;font style=&quot;font-size: 8px;&quot;&gt;Edit&lt;/font&gt;" style="rounded=1;whiteSpace=wrap;html=1;fillColor=#FFFF66;fontColor=#000000;" vertex="1" parent="1">
          <mxGeometry x="-130" y="-768" width="30" height="20" as="geometry" />
        </mxCell>
        <mxCell id="YdW8SJRkiYvQTzwNUpTn-223" value="&lt;font style=&quot;font-size: 8px;&quot;&gt;Delete&lt;/font&gt;" style="rounded=1;whiteSpace=wrap;html=1;fillColor=#CC0000;fontColor=#FFFFFF;" vertex="1" parent="1">
          <mxGeometry x="-96" y="-768" width="30" height="20" as="geometry" />
        </mxCell>
        <mxCell id="YdW8SJRkiYvQTzwNUpTn-224" value="&lt;font style=&quot;font-size: 8px;&quot;&gt;View&lt;/font&gt;" style="rounded=1;whiteSpace=wrap;html=1;fillColor=#28FFF7;fontColor=#4D4D4D;" vertex="1" parent="1">
          <mxGeometry x="-164" y="-740" width="30" height="20" as="geometry" />
        </mxCell>
        <mxCell id="YdW8SJRkiYvQTzwNUpTn-225" value="&lt;font style=&quot;font-size: 8px;&quot;&gt;Edit&lt;/font&gt;" style="rounded=1;whiteSpace=wrap;html=1;fillColor=#FFFF66;fontColor=#000000;" vertex="1" parent="1">
          <mxGeometry x="-130" y="-740" width="30" height="20" as="geometry" />
        </mxCell>
        <mxCell id="YdW8SJRkiYvQTzwNUpTn-226" value="&lt;font style=&quot;font-size: 8px;&quot;&gt;Delete&lt;/font&gt;" style="rounded=1;whiteSpace=wrap;html=1;fillColor=#CC0000;fontColor=#FFFFFF;" vertex="1" parent="1">
          <mxGeometry x="-96" y="-740" width="30" height="20" as="geometry" />
        </mxCell>
        <mxCell id="YdW8SJRkiYvQTzwNUpTn-227" value="" style="rounded=0;whiteSpace=wrap;html=1;" vertex="1" parent="1">
          <mxGeometry x="83" y="-951" width="718" height="441" as="geometry" />
        </mxCell>
        <mxCell id="YdW8SJRkiYvQTzwNUpTn-228" value="&lt;h3&gt;&lt;font style=&quot;color: rgb(255, 255, 255);&quot;&gt;&lt;font style=&quot;&quot;&gt;&lt;span style=&quot;color: light-dark(rgb(255, 255, 255), rgb(18, 18, 18)); background-color: transparent; font-size: 12px; font-weight: normal;&quot;&gt;&amp;nbsp; &amp;nbsp; &amp;nbsp; Flight Management System&lt;/span&gt;&lt;span style=&quot;color: light-dark(rgb(255, 255, 255), rgb(18, 18, 18)); background-color: transparent; font-weight: normal; font-size: 20px;&quot;&gt;&amp;nbsp; &amp;nbsp; &amp;nbsp; &amp;nbsp; &amp;nbsp; &amp;nbsp; &amp;nbsp; &amp;nbsp; &amp;nbsp; &amp;nbsp; &amp;nbsp; &amp;nbsp; &amp;nbsp; &amp;nbsp; &amp;nbsp; &amp;nbsp; &amp;nbsp; &amp;nbsp; &amp;nbsp; &amp;nbsp; &amp;nbsp; &amp;nbsp; &amp;nbsp; &amp;nbsp; &amp;nbsp; &amp;nbsp; &amp;nbsp; &amp;nbsp;&lt;/span&gt;&lt;span style=&quot;color: light-dark(rgb(255, 255, 255), rgb(18, 18, 18)); background-color: transparent; font-size: 12px; font-weight: normal;&quot;&gt;&lt;font style=&quot;font-size: 18px;&quot;&gt;Home&amp;nbsp; &amp;nbsp;Add Flight&lt;/font&gt;&lt;/span&gt;&lt;span style=&quot;font-size: 20px;&quot;&gt;&amp;nbsp; &amp;nbsp; &amp;nbsp; &amp;nbsp; &amp;nbsp; &amp;nbsp; &amp;nbsp;&lt;/span&gt;&lt;/font&gt;&lt;/font&gt;&lt;/h3&gt;" style="rounded=0;whiteSpace=wrap;html=1;align=left;fillColor=#3333FF;strokeColor=#3333FF;" vertex="1" parent="1">
          <mxGeometry x="110" y="-930" width="660" height="50" as="geometry" />
        </mxCell>
        <mxCell id="YdW8SJRkiYvQTzwNUpTn-229" value="Add New Flight" style="text;html=1;align=center;verticalAlign=middle;whiteSpace=wrap;rounded=0;fontStyle=1;fontSize=16;" vertex="1" parent="1">
          <mxGeometry x="102" y="-869" width="170" height="30" as="geometry" />
        </mxCell>
        <mxCell id="YdW8SJRkiYvQTzwNUpTn-230" value="Airline" style="text;html=1;align=center;verticalAlign=middle;whiteSpace=wrap;rounded=0;fontStyle=0;fontSize=12;" vertex="1" parent="1">
          <mxGeometry x="80" y="-844" width="170" height="30" as="geometry" />
        </mxCell>
        <mxCell id="YdW8SJRkiYvQTzwNUpTn-231" value="" style="rounded=1;whiteSpace=wrap;html=1;" vertex="1" parent="1">
          <mxGeometry x="130" y="-821" width="620" height="19" as="geometry" />
        </mxCell>
        <mxCell id="YdW8SJRkiYvQTzwNUpTn-232" value="Flight number" style="text;html=1;align=center;verticalAlign=middle;whiteSpace=wrap;rounded=0;fontStyle=0;fontSize=12;" vertex="1" parent="1">
          <mxGeometry x="82" y="-802" width="170" height="30" as="geometry" />
        </mxCell>
        <mxCell id="YdW8SJRkiYvQTzwNUpTn-233" value="Departure" style="text;html=1;align=center;verticalAlign=middle;whiteSpace=wrap;rounded=0;fontStyle=0;fontSize=12;" vertex="1" parent="1">
          <mxGeometry x="75" y="-758" width="170" height="30" as="geometry" />
        </mxCell>
        <mxCell id="YdW8SJRkiYvQTzwNUpTn-234" value="" style="rounded=1;whiteSpace=wrap;html=1;" vertex="1" parent="1">
          <mxGeometry x="129" y="-778" width="620" height="21" as="geometry" />
        </mxCell>
        <mxCell id="YdW8SJRkiYvQTzwNUpTn-235" value="" style="rounded=1;whiteSpace=wrap;html=1;" vertex="1" parent="1">
          <mxGeometry x="127" y="-734" width="620" height="21" as="geometry" />
        </mxCell>
        <mxCell id="YdW8SJRkiYvQTzwNUpTn-236" value="Arrival" style="text;html=1;align=center;verticalAlign=middle;whiteSpace=wrap;rounded=0;fontStyle=0;fontSize=12;" vertex="1" parent="1">
          <mxGeometry x="89" y="-713" width="170" height="30" as="geometry" />
        </mxCell>
        <mxCell id="YdW8SJRkiYvQTzwNUpTn-237" value="" style="rounded=1;whiteSpace=wrap;html=1;" vertex="1" parent="1">
          <mxGeometry x="125" y="-690" width="620" height="21" as="geometry" />
        </mxCell>
        <mxCell id="YdW8SJRkiYvQTzwNUpTn-238" value="Departure time" style="text;html=1;align=center;verticalAlign=middle;whiteSpace=wrap;rounded=0;fontStyle=0;fontSize=12;" vertex="1" parent="1">
          <mxGeometry x="87" y="-670" width="170" height="30" as="geometry" />
        </mxCell>
        <mxCell id="YdW8SJRkiYvQTzwNUpTn-239" value="" style="rounded=1;whiteSpace=wrap;html=1;" vertex="1" parent="1">
          <mxGeometry x="124" y="-646" width="620" height="21" as="geometry" />
        </mxCell>
        <mxCell id="YdW8SJRkiYvQTzwNUpTn-240" value="" style="rounded=1;whiteSpace=wrap;html=1;" vertex="1" parent="1">
          <mxGeometry x="124" y="-603" width="620" height="21" as="geometry" />
        </mxCell>
        <mxCell id="YdW8SJRkiYvQTzwNUpTn-241" value="Arrival time" style="text;html=1;align=center;verticalAlign=middle;whiteSpace=wrap;rounded=0;fontStyle=0;fontSize=12;" vertex="1" parent="1">
          <mxGeometry x="79" y="-628" width="170" height="30" as="geometry" />
        </mxCell>
        <mxCell id="YdW8SJRkiYvQTzwNUpTn-242" value="Save" style="rounded=1;whiteSpace=wrap;html=1;fillColor=#3333FF;fontColor=#FFFFFF;" vertex="1" parent="1">
          <mxGeometry x="129" y="-530" width="40" height="13" as="geometry" />
        </mxCell>
        <mxCell id="YdW8SJRkiYvQTzwNUpTn-243" value="" style="rounded=0;whiteSpace=wrap;html=1;" vertex="1" parent="1">
          <mxGeometry x="-819.5" y="20" width="739.5" height="450" as="geometry" />
        </mxCell>
        <mxCell id="YdW8SJRkiYvQTzwNUpTn-244" value="&lt;h3&gt;&lt;font style=&quot;color: rgb(255, 255, 255);&quot;&gt;&amp;nbsp; &amp;nbsp; &amp;nbsp; Flight Management System&lt;span style=&quot;font-size: 20px;&quot;&gt;&amp;nbsp; &amp;nbsp; &amp;nbsp; &amp;nbsp; &amp;nbsp; &amp;nbsp; &amp;nbsp; &amp;nbsp; &amp;nbsp; &amp;nbsp; &amp;nbsp; &amp;nbsp; &amp;nbsp; &amp;nbsp; &amp;nbsp; &amp;nbsp; &amp;nbsp; &amp;nbsp; &amp;nbsp; &amp;nbsp; &amp;nbsp; &amp;nbsp; &amp;nbsp; &amp;nbsp; &amp;nbsp;&lt;/span&gt;&lt;span style=&quot;font-weight: normal;&quot;&gt;&lt;font style=&quot;font-size: 18px;&quot;&gt;Home&amp;nbsp; &amp;nbsp;Add Flight&lt;/font&gt;&lt;/span&gt;&lt;/font&gt;&lt;/h3&gt;" style="rounded=0;whiteSpace=wrap;html=1;align=left;fillColor=#3333FF;strokeColor=#3333FF;" vertex="1" parent="1">
          <mxGeometry x="-792.5" y="41" width="660" height="50" as="geometry" />
        </mxCell>
        <mxCell id="YdW8SJRkiYvQTzwNUpTn-245" value="Edit Flight Details" style="text;html=1;align=center;verticalAlign=middle;whiteSpace=wrap;rounded=0;fontStyle=1;fontSize=16;" vertex="1" parent="1">
          <mxGeometry x="-790.5" y="99" width="170" height="30" as="geometry" />
        </mxCell>
        <mxCell id="YdW8SJRkiYvQTzwNUpTn-246" value="Airline" style="text;html=1;align=center;verticalAlign=middle;whiteSpace=wrap;rounded=0;fontStyle=0;fontSize=12;" vertex="1" parent="1">
          <mxGeometry x="-822.5" y="121" width="170" height="30" as="geometry" />
        </mxCell>
        <mxCell id="YdW8SJRkiYvQTzwNUpTn-247" value="&lt;span style=&quot;text-align: center;&quot;&gt;Air India&lt;/span&gt;" style="rounded=1;whiteSpace=wrap;html=1;align=left;" vertex="1" parent="1">
          <mxGeometry x="-774.5" y="144" width="620" height="19" as="geometry" />
        </mxCell>
        <mxCell id="YdW8SJRkiYvQTzwNUpTn-248" value="Flight number" style="text;html=1;align=center;verticalAlign=middle;whiteSpace=wrap;rounded=0;fontStyle=0;fontSize=12;" vertex="1" parent="1">
          <mxGeometry x="-820.5" y="163" width="170" height="30" as="geometry" />
        </mxCell>
        <mxCell id="YdW8SJRkiYvQTzwNUpTn-249" value="Departure" style="text;html=1;align=center;verticalAlign=middle;whiteSpace=wrap;rounded=0;fontStyle=0;fontSize=12;" vertex="1" parent="1">
          <mxGeometry x="-827.5" y="207" width="170" height="30" as="geometry" />
        </mxCell>
        <mxCell id="YdW8SJRkiYvQTzwNUpTn-250" value="&lt;span style=&quot;text-align: center;&quot;&gt;Ai-010&lt;/span&gt;" style="rounded=1;whiteSpace=wrap;html=1;align=left;" vertex="1" parent="1">
          <mxGeometry x="-773.5" y="187" width="620" height="21" as="geometry" />
        </mxCell>
        <mxCell id="YdW8SJRkiYvQTzwNUpTn-251" value="&lt;span style=&quot;font-size: 10px;&quot;&gt;&amp;nbsp; &amp;nbsp;SUV&lt;/span&gt;" style="rounded=1;whiteSpace=wrap;html=1;align=left;" vertex="1" parent="1">
          <mxGeometry x="-775.5" y="231" width="620" height="21" as="geometry" />
        </mxCell>
        <mxCell id="YdW8SJRkiYvQTzwNUpTn-252" value="Arrival" style="text;html=1;align=center;verticalAlign=middle;whiteSpace=wrap;rounded=0;fontStyle=0;fontSize=12;" vertex="1" parent="1">
          <mxGeometry x="-813.5" y="252" width="170" height="30" as="geometry" />
        </mxCell>
        <mxCell id="YdW8SJRkiYvQTzwNUpTn-253" value="&lt;span style=&quot;font-size: 10px;&quot;&gt;&amp;nbsp; &amp;nbsp;10:30&lt;/span&gt;" style="rounded=1;whiteSpace=wrap;html=1;align=left;" vertex="1" parent="1">
          <mxGeometry x="-777.5" y="275" width="620" height="21" as="geometry" />
        </mxCell>
        <mxCell id="YdW8SJRkiYvQTzwNUpTn-254" value="Departure Time" style="text;html=1;align=center;verticalAlign=middle;whiteSpace=wrap;rounded=0;fontStyle=0;fontSize=12;" vertex="1" parent="1">
          <mxGeometry x="-815.5" y="295" width="170" height="30" as="geometry" />
        </mxCell>
        <mxCell id="YdW8SJRkiYvQTzwNUpTn-255" value="&lt;span style=&quot;font-size: 10px;&quot;&gt;&amp;nbsp; &amp;nbsp;15:30&lt;/span&gt;" style="rounded=1;whiteSpace=wrap;html=1;align=left;" vertex="1" parent="1">
          <mxGeometry x="-778.5" y="319" width="620" height="21" as="geometry" />
        </mxCell>
        <mxCell id="YdW8SJRkiYvQTzwNUpTn-256" value="&lt;span style=&quot;font-size: 10px;&quot;&gt;&amp;nbsp; &amp;nbsp;A-1&lt;/span&gt;" style="rounded=1;whiteSpace=wrap;html=1;align=left;" vertex="1" parent="1">
          <mxGeometry x="-778.5" y="362" width="620" height="21" as="geometry" />
        </mxCell>
        <mxCell id="YdW8SJRkiYvQTzwNUpTn-257" value="Arrival TIme" style="text;html=1;align=center;verticalAlign=middle;whiteSpace=wrap;rounded=0;fontStyle=0;fontSize=12;" vertex="1" parent="1">
          <mxGeometry x="-823.5" y="337" width="170" height="30" as="geometry" />
        </mxCell>
        <mxCell id="YdW8SJRkiYvQTzwNUpTn-258" value="Update" style="rounded=1;whiteSpace=wrap;html=1;fillColor=#3333FF;fontColor=#FFFFFF;" vertex="1" parent="1">
          <mxGeometry x="-771.5" y="440" width="52" height="23" as="geometry" />
        </mxCell>
        <mxCell id="YdW8SJRkiYvQTzwNUpTn-259" value="" style="rounded=0;whiteSpace=wrap;html=1;" vertex="1" parent="1">
          <mxGeometry x="42" y="-20" width="718" height="490" as="geometry" />
        </mxCell>
        <mxCell id="YdW8SJRkiYvQTzwNUpTn-260" value="&lt;h3&gt;&lt;font style=&quot;color: rgb(255, 255, 255);&quot;&gt;&amp;nbsp; &amp;nbsp; &amp;nbsp; Flight Management System&lt;span style=&quot;font-size: 20px;&quot;&gt;&amp;nbsp; &amp;nbsp; &amp;nbsp; &amp;nbsp; &amp;nbsp; &amp;nbsp; &amp;nbsp; &amp;nbsp; &amp;nbsp; &amp;nbsp; &amp;nbsp; &amp;nbsp; &amp;nbsp; &amp;nbsp; &amp;nbsp; &amp;nbsp; &amp;nbsp; &amp;nbsp; &amp;nbsp; &amp;nbsp; &amp;nbsp; &amp;nbsp; &amp;nbsp; &amp;nbsp; &amp;nbsp;&lt;/span&gt;&lt;span style=&quot;font-weight: normal;&quot;&gt;&lt;font style=&quot;font-size: 18px;&quot;&gt;Home&amp;nbsp; &amp;nbsp;Add Flight&lt;/font&gt;&lt;/span&gt;&lt;/font&gt;&lt;/h3&gt;" style="rounded=0;whiteSpace=wrap;html=1;align=left;fillColor=#3333FF;strokeColor=#3333FF;" vertex="1" parent="1">
          <mxGeometry x="82" y="-9" width="660" height="50" as="geometry" />
        </mxCell>
        <mxCell id="YdW8SJRkiYvQTzwNUpTn-261" value="Flight Details&amp;nbsp;" style="text;html=1;align=center;verticalAlign=middle;whiteSpace=wrap;rounded=0;fontStyle=1;fontSize=16;" vertex="1" parent="1">
          <mxGeometry x="100" y="50" width="170" height="30" as="geometry" />
        </mxCell>
        <mxCell id="YdW8SJRkiYvQTzwNUpTn-262" value="" style="rounded=0;whiteSpace=wrap;html=1;perimeterSpacing=0;glass=0;shadow=1;" vertex="1" parent="1">
          <mxGeometry x="114.5" y="80" width="608" height="310" as="geometry" />
        </mxCell>
        <mxCell id="YdW8SJRkiYvQTzwNUpTn-263" value="&lt;h5 style=&quot;box-sizing: border-box; margin-top: 0px; margin-bottom: var(--bs-card-title-spacer-y); font-weight: 500; line-height: 1.2; color: rgb(33, 37, 41); font-size: 1.25rem; font-family: system-ui, -apple-system, &amp;quot;Segoe UI&amp;quot;, Roboto, &amp;quot;Helvetica Neue&amp;quot;, &amp;quot;Noto Sans&amp;quot;, &amp;quot;Liberation Sans&amp;quot;, Arial, sans-serif, &amp;quot;Apple Color Emoji&amp;quot;, &amp;quot;Segoe UI Emoji&amp;quot;, &amp;quot;Segoe UI Symbol&amp;quot;, &amp;quot;Noto Color Emoji&amp;quot;; text-align: start; background-color: rgb(255, 255, 255);&quot; class=&quot;card-title&quot;&gt;Emirates&amp;nbsp;(EM-1001)&lt;/h5&gt;&lt;h5 style=&quot;box-sizing: border-box; margin-top: 0px; margin-bottom: var(--bs-card-title-spacer-y); font-weight: 500; line-height: 1.2; color: rgb(33, 37, 41); font-size: 1.25rem; font-family: system-ui, -apple-system, &amp;quot;Segoe UI&amp;quot;, Roboto, &amp;quot;Helvetica Neue&amp;quot;, &amp;quot;Noto Sans&amp;quot;, &amp;quot;Liberation Sans&amp;quot;, Arial, sans-serif, &amp;quot;Apple Color Emoji&amp;quot;, &amp;quot;Segoe UI Emoji&amp;quot;, &amp;quot;Segoe UI Symbol&amp;quot;, &amp;quot;Noto Color Emoji&amp;quot;; text-align: start; background-color: rgb(255, 255, 255);&quot; class=&quot;card-title&quot;&gt;&lt;p style=&quot;box-sizing: border-box; margin-top: 0px; margin-bottom: 1rem; font-size: 16px;&quot;&gt;&lt;span style=&quot;box-sizing: border-box; font-weight: bolder;&quot;&gt;Flight Number:&lt;/span&gt;&amp;nbsp;EM-1001&lt;/p&gt;&lt;p style=&quot;box-sizing: border-box; margin-top: 0px; margin-bottom: 1rem; font-size: 16px;&quot;&gt;&lt;span style=&quot;box-sizing: border-box; font-weight: bolder;&quot;&gt;Airline:&lt;/span&gt;&amp;nbsp;Emirates&lt;/p&gt;&lt;p style=&quot;box-sizing: border-box; margin-top: 0px; margin-bottom: 1rem; font-size: 16px;&quot;&gt;&lt;span style=&quot;box-sizing: border-box; font-weight: bolder;&quot;&gt;Departure:&lt;/span&gt;&amp;nbsp;India&lt;/p&gt;&lt;p style=&quot;box-sizing: border-box; margin-top: 0px; margin-bottom: 1rem; font-size: 16px;&quot;&gt;&lt;span style=&quot;box-sizing: border-box; font-weight: bolder;&quot;&gt;Arrival:&lt;/span&gt;&amp;nbsp;UAE&lt;/p&gt;&lt;p style=&quot;box-sizing: border-box; margin-top: 0px; margin-bottom: 1rem; font-size: 16px;&quot;&gt;&lt;span style=&quot;box-sizing: border-box; font-weight: bolder;&quot;&gt;Departure Time:&lt;/span&gt;&amp;nbsp;10:20&lt;/p&gt;&lt;p style=&quot;box-sizing: border-box; margin-top: 0px; margin-bottom: 1rem; font-size: 16px;&quot;&gt;&lt;span style=&quot;box-sizing: border-box; font-weight: bolder;&quot;&gt;Arrival Time:&lt;/span&gt;&amp;nbsp;13:30&lt;/p&gt;&lt;p style=&quot;box-sizing: border-box; margin-top: 0px; margin-bottom: 1rem; font-size: 16px;&quot;&gt;&lt;span style=&quot;box-sizing: border-box; font-weight: bolder;&quot;&gt;Gate:&lt;/span&gt;&amp;nbsp;5&lt;/p&gt;&lt;/h5&gt;" style="text;html=1;align=center;verticalAlign=middle;whiteSpace=wrap;rounded=0;fontStyle=1;fontSize=16;" vertex="1" parent="1">
          <mxGeometry x="139.5" y="230" width="170" height="30" as="geometry" />
        </mxCell>
        <mxCell id="YdW8SJRkiYvQTzwNUpTn-264" value="Back to List" style="rounded=1;whiteSpace=wrap;html=1;fillColor=#3333FF;fontColor=#FFFFFF;" vertex="1" parent="1">
          <mxGeometry x="134.5" y="408.5" width="79" height="23" as="geometry" />
        </mxCell>
        <mxCell id="YdW8SJRkiYvQTzwNUpTn-265" value="" style="rounded=0;whiteSpace=wrap;html=1;" vertex="1" parent="1">
          <mxGeometry x="-321" y="-445" width="718" height="335" as="geometry" />
        </mxCell>
        <mxCell id="YdW8SJRkiYvQTzwNUpTn-266" value="&lt;h3&gt;&lt;font style=&quot;color: rgb(255, 255, 255);&quot;&gt;&amp;nbsp; &amp;nbsp; &amp;nbsp; Flight Management System&lt;span style=&quot;font-size: 20px;&quot;&gt;&amp;nbsp; &amp;nbsp; &amp;nbsp; &amp;nbsp; &amp;nbsp; &amp;nbsp; &amp;nbsp; &amp;nbsp; &amp;nbsp; &amp;nbsp; &amp;nbsp; &amp;nbsp; &amp;nbsp; &amp;nbsp; &amp;nbsp; &amp;nbsp; &amp;nbsp; &amp;nbsp; &amp;nbsp; &amp;nbsp; &amp;nbsp; &amp;nbsp; &amp;nbsp; &amp;nbsp; &amp;nbsp;&lt;/span&gt;&lt;span style=&quot;font-weight: normal;&quot;&gt;&lt;font style=&quot;font-size: 18px;&quot;&gt;Home&amp;nbsp; &amp;nbsp;Add Flight&lt;/font&gt;&lt;/span&gt;&lt;/font&gt;&lt;/h3&gt;" style="rounded=0;whiteSpace=wrap;html=1;align=left;fillColor=#3333FF;strokeColor=#3333FF;" vertex="1" parent="1">
          <mxGeometry x="-340" y="-440" width="660" height="50" as="geometry" />
        </mxCell>
        <mxCell id="YdW8SJRkiYvQTzwNUpTn-267" value="" style="shape=table;startSize=0;container=1;collapsible=0;childLayout=tableLayout;strokeColor=#CCCCCC;" vertex="1" parent="1">
          <mxGeometry x="-321" y="-326" width="701" height="96" as="geometry" />
        </mxCell>
        <mxCell id="YdW8SJRkiYvQTzwNUpTn-268" value="" style="shape=tableRow;horizontal=0;startSize=0;swimlaneHead=0;swimlaneBody=0;strokeColor=inherit;top=0;left=0;bottom=0;right=0;collapsible=0;dropTarget=0;fillColor=none;points=[[0,0.5],[1,0.5]];portConstraint=eastwest;" vertex="1" parent="YdW8SJRkiYvQTzwNUpTn-267">
          <mxGeometry width="701" height="40" as="geometry" />
        </mxCell>
        <mxCell id="YdW8SJRkiYvQTzwNUpTn-269" value="#" style="shape=partialRectangle;html=1;whiteSpace=wrap;connectable=0;strokeColor=inherit;overflow=hidden;fillColor=#000000;top=0;left=0;bottom=0;right=0;pointerEvents=1;fontStyle=1;fontColor=#FFFFFF;fontSize=12;" vertex="1" parent="YdW8SJRkiYvQTzwNUpTn-268">
          <mxGeometry width="30" height="40" as="geometry">
            <mxRectangle width="30" height="40" as="alternateBounds" />
          </mxGeometry>
        </mxCell>
        <mxCell id="YdW8SJRkiYvQTzwNUpTn-270" value="Airline" style="shape=partialRectangle;html=1;whiteSpace=wrap;connectable=0;strokeColor=inherit;overflow=hidden;fillColor=#000000;top=0;left=0;bottom=0;right=0;pointerEvents=1;fontStyle=1;fontColor=#FFFFFF;fontSize=12;" vertex="1" parent="YdW8SJRkiYvQTzwNUpTn-268">
          <mxGeometry x="30" width="70" height="40" as="geometry">
            <mxRectangle width="70" height="40" as="alternateBounds" />
          </mxGeometry>
        </mxCell>
        <mxCell id="YdW8SJRkiYvQTzwNUpTn-271" value="Flight Number" style="shape=partialRectangle;html=1;whiteSpace=wrap;connectable=0;strokeColor=inherit;overflow=hidden;fillColor=#000000;top=0;left=0;bottom=0;right=0;pointerEvents=1;fontStyle=1;fontColor=#FFFFFF;fontSize=12;" vertex="1" parent="YdW8SJRkiYvQTzwNUpTn-268">
          <mxGeometry x="100" width="90" height="40" as="geometry">
            <mxRectangle width="90" height="40" as="alternateBounds" />
          </mxGeometry>
        </mxCell>
        <mxCell id="YdW8SJRkiYvQTzwNUpTn-272" value="&lt;span style=&quot;font-family: system-ui, -apple-system, &amp;quot;Segoe UI&amp;quot;, Roboto, &amp;quot;Helvetica Neue&amp;quot;, &amp;quot;Noto Sans&amp;quot;, &amp;quot;Liberation Sans&amp;quot;, Arial, sans-serif, &amp;quot;Apple Color Emoji&amp;quot;, &amp;quot;Segoe UI Emoji&amp;quot;, &amp;quot;Segoe UI Symbol&amp;quot;, &amp;quot;Noto Color Emoji&amp;quot;; font-size: 11px; text-align: left; background-color: rgb(33, 37, 41);&quot;&gt;Departure&lt;/span&gt;" style="shape=partialRectangle;html=1;whiteSpace=wrap;connectable=0;strokeColor=inherit;overflow=hidden;fillColor=#000000;top=0;left=0;bottom=0;right=0;pointerEvents=1;fontStyle=1;fontColor=#FFFFFF;fontSize=12;" vertex="1" parent="YdW8SJRkiYvQTzwNUpTn-268">
          <mxGeometry x="190" width="60" height="40" as="geometry">
            <mxRectangle width="60" height="40" as="alternateBounds" />
          </mxGeometry>
        </mxCell>
        <mxCell id="YdW8SJRkiYvQTzwNUpTn-273" value="&lt;span style=&quot;font-family: system-ui, -apple-system, &amp;quot;Segoe UI&amp;quot;, Roboto, &amp;quot;Helvetica Neue&amp;quot;, &amp;quot;Noto Sans&amp;quot;, &amp;quot;Liberation Sans&amp;quot;, Arial, sans-serif, &amp;quot;Apple Color Emoji&amp;quot;, &amp;quot;Segoe UI Emoji&amp;quot;, &amp;quot;Segoe UI Symbol&amp;quot;, &amp;quot;Noto Color Emoji&amp;quot;; font-size: 14px; text-align: left; background-color: rgb(33, 37, 41);&quot;&gt;Arrival&lt;/span&gt;" style="shape=partialRectangle;html=1;whiteSpace=wrap;connectable=0;strokeColor=inherit;overflow=hidden;fillColor=#000000;top=0;left=0;bottom=0;right=0;pointerEvents=1;fontStyle=1;fontColor=#FFFFFF;fontSize=12;" vertex="1" parent="YdW8SJRkiYvQTzwNUpTn-268">
          <mxGeometry x="250" width="88" height="40" as="geometry">
            <mxRectangle width="88" height="40" as="alternateBounds" />
          </mxGeometry>
        </mxCell>
        <mxCell id="YdW8SJRkiYvQTzwNUpTn-274" value="Departure Time" style="shape=partialRectangle;html=1;whiteSpace=wrap;connectable=0;strokeColor=inherit;overflow=hidden;fillColor=#000000;top=0;left=0;bottom=0;right=0;pointerEvents=1;fontStyle=1;fontColor=#FFFFFF;fontSize=12;" vertex="1" parent="YdW8SJRkiYvQTzwNUpTn-268">
          <mxGeometry x="338" width="93" height="40" as="geometry">
            <mxRectangle width="93" height="40" as="alternateBounds" />
          </mxGeometry>
        </mxCell>
        <mxCell id="YdW8SJRkiYvQTzwNUpTn-275" value="Arrival-Time" style="shape=partialRectangle;html=1;whiteSpace=wrap;connectable=0;strokeColor=inherit;overflow=hidden;fillColor=#000000;top=0;left=0;bottom=0;right=0;pointerEvents=1;fontStyle=1;fontColor=#FFFFFF;fontSize=12;" vertex="1" parent="YdW8SJRkiYvQTzwNUpTn-268">
          <mxGeometry x="431" width="80" height="40" as="geometry">
            <mxRectangle width="80" height="40" as="alternateBounds" />
          </mxGeometry>
        </mxCell>
        <mxCell id="YdW8SJRkiYvQTzwNUpTn-328" value="&lt;font style=&quot;color: rgb(255, 255, 255);&quot;&gt;Gate&lt;/font&gt;" style="shape=partialRectangle;html=1;whiteSpace=wrap;connectable=0;strokeColor=inherit;overflow=hidden;fillColor=#000000;top=0;left=0;bottom=0;right=0;pointerEvents=1;fontStyle=1;fontColor=#FFFFFF;fontSize=12;" vertex="1" parent="YdW8SJRkiYvQTzwNUpTn-268">
          <mxGeometry x="511" width="80" height="40" as="geometry">
            <mxRectangle width="80" height="40" as="alternateBounds" />
          </mxGeometry>
        </mxCell>
        <mxCell id="YdW8SJRkiYvQTzwNUpTn-276" value="Action" style="shape=partialRectangle;html=1;whiteSpace=wrap;connectable=0;strokeColor=inherit;overflow=hidden;fillColor=#000000;top=0;left=0;bottom=0;right=0;pointerEvents=1;fontStyle=1;fontColor=#FFFFFF;fontSize=12;" vertex="1" parent="YdW8SJRkiYvQTzwNUpTn-268">
          <mxGeometry x="591" width="110" height="40" as="geometry">
            <mxRectangle width="110" height="40" as="alternateBounds" />
          </mxGeometry>
        </mxCell>
        <mxCell id="YdW8SJRkiYvQTzwNUpTn-277" value="" style="shape=tableRow;horizontal=0;startSize=0;swimlaneHead=0;swimlaneBody=0;strokeColor=inherit;top=0;left=0;bottom=0;right=0;collapsible=0;dropTarget=0;fillColor=none;points=[[0,0.5],[1,0.5]];portConstraint=eastwest;" vertex="1" parent="YdW8SJRkiYvQTzwNUpTn-267">
          <mxGeometry y="40" width="701" height="26" as="geometry" />
        </mxCell>
        <mxCell id="YdW8SJRkiYvQTzwNUpTn-278" value="1" style="shape=partialRectangle;html=1;whiteSpace=wrap;connectable=0;strokeColor=inherit;overflow=hidden;fillColor=none;top=0;left=0;bottom=0;right=0;pointerEvents=1;" vertex="1" parent="YdW8SJRkiYvQTzwNUpTn-277">
          <mxGeometry width="30" height="26" as="geometry">
            <mxRectangle width="30" height="26" as="alternateBounds" />
          </mxGeometry>
        </mxCell>
        <mxCell id="YdW8SJRkiYvQTzwNUpTn-279" value="Air India" style="shape=partialRectangle;html=1;whiteSpace=wrap;connectable=0;strokeColor=inherit;overflow=hidden;fillColor=none;top=0;left=0;bottom=0;right=0;pointerEvents=1;" vertex="1" parent="YdW8SJRkiYvQTzwNUpTn-277">
          <mxGeometry x="30" width="70" height="26" as="geometry">
            <mxRectangle width="70" height="26" as="alternateBounds" />
          </mxGeometry>
        </mxCell>
        <mxCell id="YdW8SJRkiYvQTzwNUpTn-280" value="Ai-010" style="shape=partialRectangle;html=1;whiteSpace=wrap;connectable=0;strokeColor=inherit;overflow=hidden;fillColor=none;top=0;left=0;bottom=0;right=0;pointerEvents=1;" vertex="1" parent="YdW8SJRkiYvQTzwNUpTn-277">
          <mxGeometry x="100" width="90" height="26" as="geometry">
            <mxRectangle width="90" height="26" as="alternateBounds" />
          </mxGeometry>
        </mxCell>
        <mxCell id="YdW8SJRkiYvQTzwNUpTn-281" value="Mumbai" style="shape=partialRectangle;html=1;whiteSpace=wrap;connectable=0;strokeColor=inherit;overflow=hidden;fillColor=none;top=0;left=0;bottom=0;right=0;pointerEvents=1;" vertex="1" parent="YdW8SJRkiYvQTzwNUpTn-277">
          <mxGeometry x="190" width="60" height="26" as="geometry">
            <mxRectangle width="60" height="26" as="alternateBounds" />
          </mxGeometry>
        </mxCell>
        <mxCell id="YdW8SJRkiYvQTzwNUpTn-282" value="Korea" style="shape=partialRectangle;html=1;whiteSpace=wrap;connectable=0;strokeColor=inherit;overflow=hidden;fillColor=none;top=0;left=0;bottom=0;right=0;pointerEvents=1;" vertex="1" parent="YdW8SJRkiYvQTzwNUpTn-277">
          <mxGeometry x="250" width="88" height="26" as="geometry">
            <mxRectangle width="88" height="26" as="alternateBounds" />
          </mxGeometry>
        </mxCell>
        <mxCell id="YdW8SJRkiYvQTzwNUpTn-283" value="12:24" style="shape=partialRectangle;html=1;whiteSpace=wrap;connectable=0;strokeColor=inherit;overflow=hidden;fillColor=none;top=0;left=0;bottom=0;right=0;pointerEvents=1;" vertex="1" parent="YdW8SJRkiYvQTzwNUpTn-277">
          <mxGeometry x="338" width="93" height="26" as="geometry">
            <mxRectangle width="93" height="26" as="alternateBounds" />
          </mxGeometry>
        </mxCell>
        <mxCell id="YdW8SJRkiYvQTzwNUpTn-284" value="14:00" style="shape=partialRectangle;html=1;whiteSpace=wrap;connectable=0;strokeColor=inherit;overflow=hidden;fillColor=none;top=0;left=0;bottom=0;right=0;pointerEvents=1;" vertex="1" parent="YdW8SJRkiYvQTzwNUpTn-277">
          <mxGeometry x="431" width="80" height="26" as="geometry">
            <mxRectangle width="80" height="26" as="alternateBounds" />
          </mxGeometry>
        </mxCell>
        <mxCell id="YdW8SJRkiYvQTzwNUpTn-329" value="A-1" style="shape=partialRectangle;html=1;whiteSpace=wrap;connectable=0;strokeColor=inherit;overflow=hidden;fillColor=none;top=0;left=0;bottom=0;right=0;pointerEvents=1;" vertex="1" parent="YdW8SJRkiYvQTzwNUpTn-277">
          <mxGeometry x="511" width="80" height="26" as="geometry">
            <mxRectangle width="80" height="26" as="alternateBounds" />
          </mxGeometry>
        </mxCell>
        <mxCell id="YdW8SJRkiYvQTzwNUpTn-285" value="" style="shape=partialRectangle;html=1;whiteSpace=wrap;connectable=0;strokeColor=inherit;overflow=hidden;fillColor=none;top=0;left=0;bottom=0;right=0;pointerEvents=1;" vertex="1" parent="YdW8SJRkiYvQTzwNUpTn-277">
          <mxGeometry x="591" width="110" height="26" as="geometry">
            <mxRectangle width="110" height="26" as="alternateBounds" />
          </mxGeometry>
        </mxCell>
        <mxCell id="YdW8SJRkiYvQTzwNUpTn-286" value="" style="shape=tableRow;horizontal=0;startSize=0;swimlaneHead=0;swimlaneBody=0;strokeColor=inherit;top=0;left=0;bottom=0;right=0;collapsible=0;dropTarget=0;fillColor=none;points=[[0,0.5],[1,0.5]];portConstraint=eastwest;" vertex="1" parent="YdW8SJRkiYvQTzwNUpTn-267">
          <mxGeometry y="66" width="701" height="30" as="geometry" />
        </mxCell>
        <mxCell id="YdW8SJRkiYvQTzwNUpTn-287" value="2" style="shape=partialRectangle;html=1;whiteSpace=wrap;connectable=0;strokeColor=inherit;overflow=hidden;fillColor=none;top=0;left=0;bottom=0;right=0;pointerEvents=1;" vertex="1" parent="YdW8SJRkiYvQTzwNUpTn-286">
          <mxGeometry width="30" height="30" as="geometry">
            <mxRectangle width="30" height="30" as="alternateBounds" />
          </mxGeometry>
        </mxCell>
        <mxCell id="YdW8SJRkiYvQTzwNUpTn-288" value="Emirates" style="shape=partialRectangle;html=1;whiteSpace=wrap;connectable=0;strokeColor=inherit;overflow=hidden;fillColor=none;top=0;left=0;bottom=0;right=0;pointerEvents=1;" vertex="1" parent="YdW8SJRkiYvQTzwNUpTn-286">
          <mxGeometry x="30" width="70" height="30" as="geometry">
            <mxRectangle width="70" height="30" as="alternateBounds" />
          </mxGeometry>
        </mxCell>
        <mxCell id="YdW8SJRkiYvQTzwNUpTn-289" value="EM_100" style="shape=partialRectangle;html=1;whiteSpace=wrap;connectable=0;strokeColor=inherit;overflow=hidden;fillColor=none;top=0;left=0;bottom=0;right=0;pointerEvents=1;" vertex="1" parent="YdW8SJRkiYvQTzwNUpTn-286">
          <mxGeometry x="100" width="90" height="30" as="geometry">
            <mxRectangle width="90" height="30" as="alternateBounds" />
          </mxGeometry>
        </mxCell>
        <mxCell id="YdW8SJRkiYvQTzwNUpTn-290" value="Karnataka" style="shape=partialRectangle;html=1;whiteSpace=wrap;connectable=0;strokeColor=inherit;overflow=hidden;fillColor=none;top=0;left=0;bottom=0;right=0;pointerEvents=1;" vertex="1" parent="YdW8SJRkiYvQTzwNUpTn-286">
          <mxGeometry x="190" width="60" height="30" as="geometry">
            <mxRectangle width="60" height="30" as="alternateBounds" />
          </mxGeometry>
        </mxCell>
        <mxCell id="YdW8SJRkiYvQTzwNUpTn-291" value="UAE" style="shape=partialRectangle;html=1;whiteSpace=wrap;connectable=0;strokeColor=inherit;overflow=hidden;fillColor=none;top=0;left=0;bottom=0;right=0;pointerEvents=1;" vertex="1" parent="YdW8SJRkiYvQTzwNUpTn-286">
          <mxGeometry x="250" width="88" height="30" as="geometry">
            <mxRectangle width="88" height="30" as="alternateBounds" />
          </mxGeometry>
        </mxCell>
        <mxCell id="YdW8SJRkiYvQTzwNUpTn-292" value="14:30" style="shape=partialRectangle;html=1;whiteSpace=wrap;connectable=0;strokeColor=inherit;overflow=hidden;fillColor=none;top=0;left=0;bottom=0;right=0;pointerEvents=1;" vertex="1" parent="YdW8SJRkiYvQTzwNUpTn-286">
          <mxGeometry x="338" width="93" height="30" as="geometry">
            <mxRectangle width="93" height="30" as="alternateBounds" />
          </mxGeometry>
        </mxCell>
        <mxCell id="YdW8SJRkiYvQTzwNUpTn-293" value="16:00" style="shape=partialRectangle;html=1;whiteSpace=wrap;connectable=0;strokeColor=inherit;overflow=hidden;fillColor=none;top=0;left=0;bottom=0;right=0;pointerEvents=1;" vertex="1" parent="YdW8SJRkiYvQTzwNUpTn-286">
          <mxGeometry x="431" width="80" height="30" as="geometry">
            <mxRectangle width="80" height="30" as="alternateBounds" />
          </mxGeometry>
        </mxCell>
        <mxCell id="YdW8SJRkiYvQTzwNUpTn-330" value="E-5" style="shape=partialRectangle;html=1;whiteSpace=wrap;connectable=0;strokeColor=inherit;overflow=hidden;fillColor=none;top=0;left=0;bottom=0;right=0;pointerEvents=1;" vertex="1" parent="YdW8SJRkiYvQTzwNUpTn-286">
          <mxGeometry x="511" width="80" height="30" as="geometry">
            <mxRectangle width="80" height="30" as="alternateBounds" />
          </mxGeometry>
        </mxCell>
        <mxCell id="YdW8SJRkiYvQTzwNUpTn-294" value="" style="shape=partialRectangle;html=1;whiteSpace=wrap;connectable=0;strokeColor=inherit;overflow=hidden;fillColor=none;top=0;left=0;bottom=0;right=0;pointerEvents=1;" vertex="1" parent="YdW8SJRkiYvQTzwNUpTn-286">
          <mxGeometry x="591" width="110" height="30" as="geometry">
            <mxRectangle width="110" height="30" as="alternateBounds" />
          </mxGeometry>
        </mxCell>
        <mxCell id="YdW8SJRkiYvQTzwNUpTn-295" value="Flight list" style="text;html=1;align=center;verticalAlign=middle;whiteSpace=wrap;rounded=0;fontStyle=1;fontSize=16;" vertex="1" parent="1">
          <mxGeometry x="-334" y="-360" width="170" height="30" as="geometry" />
        </mxCell>
        <mxCell id="YdW8SJRkiYvQTzwNUpTn-296" value="Add new FLight" style="rounded=1;whiteSpace=wrap;html=1;fillColor=#55AB51;fontColor=#FFFFFF;" vertex="1" parent="1">
          <mxGeometry x="200" y="-370" width="80" height="30" as="geometry" />
        </mxCell>
        <mxCell id="YdW8SJRkiYvQTzwNUpTn-297" value="&lt;font style=&quot;font-size: 8px;&quot;&gt;View&lt;/font&gt;" style="rounded=1;whiteSpace=wrap;html=1;fillColor=#28FFF7;fontColor=#4D4D4D;" vertex="1" parent="1">
          <mxGeometry x="280" y="-283" width="30" height="20" as="geometry" />
        </mxCell>
        <mxCell id="YdW8SJRkiYvQTzwNUpTn-298" value="&lt;font style=&quot;font-size: 8px;&quot;&gt;Edit&lt;/font&gt;" style="rounded=1;whiteSpace=wrap;html=1;fillColor=#FFFF66;fontColor=#000000;" vertex="1" parent="1">
          <mxGeometry x="313" y="-283" width="32" height="20" as="geometry" />
        </mxCell>
        <mxCell id="YdW8SJRkiYvQTzwNUpTn-299" value="&lt;font style=&quot;font-size: 8px;&quot;&gt;Delete&lt;/font&gt;" style="rounded=1;whiteSpace=wrap;html=1;fillColor=#CC0000;fontColor=#FFFFFF;" vertex="1" parent="1">
          <mxGeometry x="348" y="-283" width="30" height="20" as="geometry" />
        </mxCell>
        <mxCell id="YdW8SJRkiYvQTzwNUpTn-300" value="&lt;font style=&quot;font-size: 8px;&quot;&gt;View&lt;/font&gt;" style="rounded=1;whiteSpace=wrap;html=1;fillColor=#28FFF7;fontColor=#4D4D4D;" vertex="1" parent="1">
          <mxGeometry x="280" y="-255" width="30" height="20" as="geometry" />
        </mxCell>
        <mxCell id="YdW8SJRkiYvQTzwNUpTn-301" value="&lt;font style=&quot;font-size: 8px;&quot;&gt;Edit&lt;/font&gt;" style="rounded=1;whiteSpace=wrap;html=1;fillColor=#FFFF66;fontColor=#000000;" vertex="1" parent="1">
          <mxGeometry x="314" y="-255" width="30" height="20" as="geometry" />
        </mxCell>
        <mxCell id="YdW8SJRkiYvQTzwNUpTn-302" value="&lt;font style=&quot;font-size: 8px;&quot;&gt;Delete&lt;/font&gt;" style="rounded=1;whiteSpace=wrap;html=1;fillColor=#CC0000;fontColor=#FFFFFF;" vertex="1" parent="1">
          <mxGeometry x="348" y="-255" width="30" height="20" as="geometry" />
        </mxCell>
        <mxCell id="YdW8SJRkiYvQTzwNUpTn-303" value="" style="rounded=0;whiteSpace=wrap;html=1;" vertex="1" parent="1">
          <mxGeometry x="-210" y="-400" width="380" height="90" as="geometry" />
        </mxCell>
        <mxCell id="YdW8SJRkiYvQTzwNUpTn-304" value="Confirm Deletion" style="text;html=1;align=center;verticalAlign=middle;whiteSpace=wrap;rounded=0;fontStyle=1;fontSize=14;" vertex="1" parent="1">
          <mxGeometry x="-202" y="-395" width="123" height="30" as="geometry" />
        </mxCell>
        <mxCell id="YdW8SJRkiYvQTzwNUpTn-305" value="" style="endArrow=none;html=1;rounded=0;fontSize=12;startSize=8;endSize=7;curved=0;exitX=-0.003;exitY=0.35;exitDx=0;exitDy=0;entryX=1;entryY=0.333;entryDx=0;entryDy=0;entryPerimeter=0;exitPerimeter=0;strokeColor=#CCCCCC;" edge="1" parent="1">
          <mxGeometry width="50" height="50" relative="1" as="geometry">
            <mxPoint x="-210.1400000000001" y="-364.4999999999998" as="sourcePoint" />
            <mxPoint x="171" y="-366.03" as="targetPoint" />
          </mxGeometry>
        </mxCell>
        <mxCell id="YdW8SJRkiYvQTzwNUpTn-306" value="" style="endArrow=none;html=1;rounded=0;fontSize=12;startSize=8;endSize=7;curved=0;exitX=-0.003;exitY=0.35;exitDx=0;exitDy=0;entryX=1;entryY=0.333;entryDx=0;entryDy=0;entryPerimeter=0;exitPerimeter=0;strokeColor=#CCCCCC;" edge="1" parent="1">
          <mxGeometry width="50" height="50" relative="1" as="geometry">
            <mxPoint x="-209.1400000000001" y="-339.4999999999998" as="sourcePoint" />
            <mxPoint x="172" y="-341.03" as="targetPoint" />
          </mxGeometry>
        </mxCell>
        <mxCell id="YdW8SJRkiYvQTzwNUpTn-307" value="&lt;span style=&quot;color: rgb(33, 37, 41); font-family: system-ui, -apple-system, &amp;quot;Segoe UI&amp;quot;, Roboto, &amp;quot;Helvetica Neue&amp;quot;, &amp;quot;Noto Sans&amp;quot;, &amp;quot;Liberation Sans&amp;quot;, Arial, sans-serif, &amp;quot;Apple Color Emoji&amp;quot;, &amp;quot;Segoe UI Emoji&amp;quot;, &amp;quot;Segoe UI Symbol&amp;quot;, &amp;quot;Noto Color Emoji&amp;quot;; text-align: start;&quot;&gt;&lt;font&gt;Are you sure you want to delete this flight?&lt;/font&gt;&lt;/span&gt;" style="text;html=1;align=center;verticalAlign=middle;whiteSpace=wrap;rounded=0;" vertex="1" parent="1">
          <mxGeometry x="-249.5" y="-367" width="320.5" height="30" as="geometry" />
        </mxCell>
        <mxCell id="YdW8SJRkiYvQTzwNUpTn-308" value="&lt;font style=&quot;font-size: 8px;&quot;&gt;Cancel&lt;/font&gt;" style="rounded=1;whiteSpace=wrap;html=1;fillColor=#808080;fontColor=#FFFFFF;verticalAlign=bottom;" vertex="1" parent="1">
          <mxGeometry x="79" y="-335" width="31" height="15" as="geometry" />
        </mxCell>
        <mxCell id="YdW8SJRkiYvQTzwNUpTn-309" value="&lt;font style=&quot;font-size: 8px; line-height: 100%;&quot;&gt;Delete&lt;/font&gt;" style="rounded=1;whiteSpace=wrap;html=1;fillColor=#FF0000;fontColor=#FFFFFF;strokeWidth=1;verticalAlign=bottom;" vertex="1" parent="1">
          <mxGeometry x="115" y="-335" width="27" height="15" as="geometry" />
        </mxCell>
        <mxCell id="YdW8SJRkiYvQTzwNUpTn-310" value="X" style="text;html=1;align=center;verticalAlign=middle;whiteSpace=wrap;rounded=0;fontStyle=0;fontSize=14;" vertex="1" parent="1">
          <mxGeometry x="86" y="-395" width="123" height="30" as="geometry" />
        </mxCell>
        <mxCell id="YdW8SJRkiYvQTzwNUpTn-312" value="" style="rounded=1;whiteSpace=wrap;html=1;" vertex="1" parent="1">
          <mxGeometry x="125" y="-558" width="635" height="20" as="geometry" />
        </mxCell>
        <mxCell id="YdW8SJRkiYvQTzwNUpTn-313" value="Gate" style="text;html=1;align=center;verticalAlign=middle;whiteSpace=wrap;rounded=0;" vertex="1" parent="1">
          <mxGeometry x="114.5" y="-582" width="60" height="30" as="geometry" />
        </mxCell>
        <mxCell id="YdW8SJRkiYvQTzwNUpTn-314" style="edgeStyle=orthogonalEdgeStyle;rounded=0;orthogonalLoop=1;jettySize=auto;html=1;exitX=0.5;exitY=1;exitDx=0;exitDy=0;" edge="1" parent="1" source="YdW8SJRkiYvQTzwNUpTn-228" target="YdW8SJRkiYvQTzwNUpTn-228">
          <mxGeometry relative="1" as="geometry" />
        </mxCell>
        <mxCell id="YdW8SJRkiYvQTzwNUpTn-324" value="&lt;font style=&quot;font-size: 8px;&quot;&gt;Delete&lt;/font&gt;" style="rounded=1;whiteSpace=wrap;html=1;fillColor=#CC0000;fontColor=#FFFFFF;" vertex="1" parent="1">
          <mxGeometry x="-177" y="-673" width="30" height="20" as="geometry" />
        </mxCell>
        <mxCell id="YdW8SJRkiYvQTzwNUpTn-326" value="&lt;font style=&quot;color: rgb(255, 255, 255);&quot;&gt;Gate&lt;/font&gt;" style="text;html=1;align=center;verticalAlign=middle;whiteSpace=wrap;rounded=0;" vertex="1" parent="1">
          <mxGeometry x="-240" y="-803" width="60" height="30" as="geometry" />
        </mxCell>
        <mxCell id="YdW8SJRkiYvQTzwNUpTn-327" value="A-1" style="text;html=1;align=center;verticalAlign=middle;whiteSpace=wrap;rounded=0;" vertex="1" parent="1">
          <mxGeometry x="-245" y="-775" width="60" height="30" as="geometry" />
        </mxCell>
        <mxCell id="YdW8SJRkiYvQTzwNUpTn-333" value="" style="rounded=1;whiteSpace=wrap;html=1;" vertex="1" parent="1">
          <mxGeometry x="-780" y="410" width="620" height="20" as="geometry" />
        </mxCell>
        <mxCell id="YdW8SJRkiYvQTzwNUpTn-334" value="Gate" style="text;html=1;align=center;verticalAlign=middle;whiteSpace=wrap;rounded=0;" vertex="1" parent="1">
          <mxGeometry x="-790.5" y="386.5" width="60" height="30" as="geometry" />
        </mxCell>
      </root>
    </mxGraphModel>
  </diagram>
</mxfile>
